<svg width="67" height="54" viewBox="0 0 67 54" fill="none" xmlns="http://www.w3.org/2000/svg">
<path fill-rule="evenodd" clip-rule="evenodd" d="M59.4643 23.6063C54.514 13.448 44.3734 7.02745 33.0028 7.02745C21.6322 7.02745 11.4916 13.448 6.54134 23.6063C11.4916 33.7646 21.6322 40.1851 33.0028 40.1851C35.7089 40.1851 38.3454 39.8215 40.8588 39.1303C40.8759 39.4758 40.9104 39.819 40.9522 40.155L37.7871 42.6418C37.5021 42.8679 37.427 43.2748 37.6071 43.6064L38.8311 45.734C36.9351 46.0496 34.9881 46.2138 33.0028 46.2138C18.002 46.2138 5.19126 36.8392 0.000976562 23.6063C5.19126 10.3734 18.002 0.998779 33.0028 0.998779C48.0036 0.998779 60.8143 10.3734 66.0046 23.6063C65.3295 25.3276 64.5254 26.9836 63.6043 28.5623L63.5885 28.5347C63.4535 28.2936 63.1985 28.1579 62.9285 28.1579C62.8385 28.1579 62.7484 28.173 62.6734 28.2032L58.9382 29.7103C58.2163 29.1523 57.4429 28.6847 56.6062 28.3194C57.6884 26.8583 58.6471 25.2832 59.4643 23.6063ZM45.09 29.6428C45.9944 27.8234 46.5036 25.7731 46.5036 23.6063C46.5036 16.1307 40.4432 10.0418 33.0028 10.0418C25.5624 10.0418 19.5021 16.1307 19.5021 23.6063C19.5021 31.0818 25.5624 37.1708 33.0028 37.1708C35.1825 37.1708 37.2438 36.6482 39.069 35.7213L37.7871 34.7141C37.5021 34.488 37.412 34.0811 37.6071 33.7495L40.6072 28.5347C40.7422 28.2936 40.9972 28.1579 41.2523 28.1579C41.3423 28.1579 41.4323 28.173 41.5223 28.2032L45.09 29.6428ZM40.5032 23.6063C40.5032 19.4465 37.143 16.0705 33.0028 16.0705C28.8626 16.0705 25.5024 19.4465 25.5024 23.6063C25.5024 27.7661 28.8626 31.1421 33.0028 31.1421C37.143 31.1421 40.5032 27.7661 40.5032 23.6063Z" fill="#DDDDDD"/>
<path d="M63.2436 40.1549C63.3036 39.6726 63.3486 39.1903 63.3486 38.6779C63.3486 38.1654 63.3036 37.6831 63.2436 37.2009L66.4088 34.714C66.6938 34.488 66.7688 34.081 66.5888 33.7494L63.5886 28.5346C63.4536 28.2935 63.1986 28.1578 62.9286 28.1578C62.8386 28.1578 62.7486 28.1729 62.6736 28.2031L58.9384 29.7102C58.1583 29.1074 57.3183 28.61 56.4032 28.2332L55.8332 24.2392C55.7882 23.8775 55.4732 23.6062 55.0981 23.6062H49.0978C48.7228 23.6062 48.4078 23.8775 48.3628 24.2392L47.7927 28.2332C46.8777 28.61 46.0376 29.1224 45.2576 29.7102L41.5224 28.2031C41.4324 28.1729 41.3424 28.1578 41.2524 28.1578C40.9974 28.1578 40.7424 28.2935 40.6073 28.5346L37.6072 33.7494C37.4122 34.081 37.5022 34.488 37.7872 34.714L40.9524 37.2009C40.8924 37.6831 40.8474 38.1805 40.8474 38.6779C40.8474 39.1752 40.8924 39.6726 40.9524 40.1549L37.7872 42.6417C37.5022 42.8678 37.4272 43.2747 37.6072 43.6063L40.6073 48.8211C40.7424 49.0623 40.9974 49.1979 41.2674 49.1979C41.3574 49.1979 41.4474 49.1828 41.5224 49.1527L45.2576 47.6455C46.0376 48.2484 46.8777 48.7458 47.7927 49.1226L48.3628 53.1165C48.4078 53.4783 48.7228 53.7496 49.0978 53.7496H55.0981C55.4732 53.7496 55.7882 53.4783 55.8332 53.1165L56.4032 49.1226C57.3183 48.7458 58.1583 48.2333 58.9384 47.6455L62.6736 49.1527C62.7636 49.1828 62.8536 49.1979 62.9436 49.1979C63.1986 49.1979 63.4536 49.0623 63.5886 48.8211L66.5888 43.6063C66.7688 43.2747 66.6938 42.8678 66.4088 42.6417L63.2436 40.1549ZM60.2734 37.5776C60.3334 38.0449 60.3484 38.3614 60.3484 38.6779C60.3484 38.9944 60.3184 39.326 60.2734 39.7781L60.0634 41.4812L61.3985 42.5362L63.0186 43.8022L61.9685 45.6259L60.0634 44.8573L58.5033 44.2243L57.1533 45.2491C56.5082 45.7314 55.8932 46.0931 55.2782 46.3494L53.6881 46.9974L53.4481 48.7005L53.148 50.7352H51.0479L50.7629 48.7005L50.5229 46.9974L48.9328 46.3494C48.2878 46.0781 47.6877 45.7314 47.0877 45.2793L45.7226 44.2243L44.1325 44.8723L42.2274 45.641L41.1774 43.8173L42.7975 42.5513L44.1325 41.4963L43.9225 39.7932C43.8775 39.326 43.8475 38.9793 43.8475 38.6779C43.8475 38.3764 43.8775 38.0298 43.9225 37.5776L44.1325 35.8745L42.7975 34.8195L41.1774 33.5535L42.2274 31.7298L44.1325 32.4985L45.6926 33.1315L47.0427 32.1066C47.6877 31.6243 48.3028 31.2626 48.9178 31.0064L50.5079 30.3583L50.7479 28.6552L51.0479 26.6205H53.133L53.418 28.6552L53.6581 30.3583L55.2482 31.0064C55.8932 31.2777 56.4932 31.6243 57.0933 32.0765L58.4583 33.1315L60.0484 32.4834L61.9535 31.7148L63.0036 33.5384L61.3985 34.8195L60.0634 35.8745L60.2734 37.5776ZM52.098 32.6492C48.7828 32.6492 46.0976 35.347 46.0976 38.6779C46.0976 42.0087 48.7828 44.7066 52.098 44.7066C55.4132 44.7066 58.0983 42.0087 58.0983 38.6779C58.0983 35.347 55.4132 32.6492 52.098 32.6492ZM52.098 41.6922C50.4479 41.6922 49.0978 40.3358 49.0978 38.6779C49.0978 37.02 50.4479 35.6635 52.098 35.6635C53.7481 35.6635 55.0981 37.02 55.0981 38.6779C55.0981 40.3358 53.7481 41.6922 52.098 41.6922Z" fill="#B4B4B4"/>
</svg>
