<svg width="53" height="53" viewBox="0 0 53 53" fill="none" xmlns="http://www.w3.org/2000/svg">
<path d="M48.0166 21.7594L51.2278 18.6383C53.5907 16.3417 53.5907 12.6022 51.2278 10.3056L46.9563 6.15389C44.5933 3.85722 40.7459 3.85722 38.383 6.15389L35.1718 9.275L48.0166 21.7594ZM35.1718 25.9406L13.3598 47.1111H9.08831V42.9594L30.87 21.7889L35.1718 25.9406ZM30.87 13.4267L3.02944 40.5156V53H15.8742L43.7148 25.9406L30.87 13.4267ZM48.471 42.6944C48.471 49.1428 40.7762 53 33.3238 53C31.6576 53 30.2944 51.675 30.2944 50.0556C30.2944 48.4361 31.6576 47.1111 33.3238 47.1111C37.9891 47.1111 42.4121 44.9617 42.4121 42.6944C42.4121 41.3106 40.958 40.1328 38.6859 39.1611L43.1695 34.8033C46.411 36.6583 48.471 39.1317 48.471 42.6944ZM4.78651 30.475C1.84796 28.8261 0 26.6767 0 23.5556C0 18.2556 5.72564 15.8117 10.7848 13.6622C13.9051 12.3078 18.1766 10.4822 18.1766 8.83333C18.1766 7.62611 15.8137 5.88889 12.1177 5.88889C8.30066 5.88889 6.66476 7.685 6.57388 7.77333C5.51358 8.98056 3.60503 9.12778 2.33267 8.12667C1.0906 7.12556 0.848242 5.32944 1.87825 4.06333C2.21149 3.65111 5.33181 0 12.1177 0C18.9037 0 24.2355 3.88667 24.2355 8.83333C24.2355 14.3394 18.3887 16.8422 13.2083 19.0506C10.3607 20.2578 6.05887 22.0833 6.05887 23.5556C6.05887 24.4683 7.36153 25.3222 9.30037 26.0878L4.78651 30.475Z" fill="#DDDDDD"/>
</svg>
