<svg width="29" height="18" viewBox="0 0 29 18" fill="none" xmlns="http://www.w3.org/2000/svg">
<g clip-path="url(#clip0_4_5)">
<path fill-rule="evenodd" clip-rule="evenodd" d="M10.5787 16.0764H18.4203V1.92462H10.5787V16.0764Z" fill="#FF5A00"/>
<path fill-rule="evenodd" clip-rule="evenodd" d="M11.077 9.0005C11.0774 7.63564 11.3859 6.2889 11.9792 5.06297C12.5724 3.83705 13.4346 2.76434 14.5 1.92665C13.18 0.883454 11.5976 0.234743 9.932 0.0539214C8.26636 -0.1269 6.58393 0.167385 5.07509 0.903478C3.56624 1.63957 2.29123 2.78808 1.39432 4.21905C0.497414 5.65001 0.0144216 7.30631 0 9.0005C0.0140512 10.6949 0.496773 12.3514 1.39353 13.7827C2.29029 15.2139 3.56528 16.3628 5.0742 17.0991C6.58311 17.8354 8.26569 18.1299 9.93151 17.9492C11.5973 17.7684 13.1799 17.1197 14.5 16.0764C13.4342 15.2385 12.5718 14.1655 11.9786 12.9392C11.3854 11.7129 11.077 10.3657 11.077 9.0005V9.0005Z" fill="#EC0014"/>
<path fill-rule="evenodd" clip-rule="evenodd" d="M29 9.0005C28.9859 10.6949 28.5032 12.3514 27.6065 13.7827C26.7097 15.2139 25.4347 16.3628 23.9258 17.0991C22.4169 17.8354 20.7343 18.1299 19.0685 17.9491C17.4027 17.7684 15.8201 17.1197 14.5 16.0764C15.5656 15.2384 16.4279 14.1654 17.021 12.9391C17.6142 11.7128 17.9225 10.3657 17.9225 9.0005C17.9225 7.63534 17.6142 6.28821 17.021 5.06192C16.4279 3.83562 15.5656 2.76256 14.5 1.92462C15.8201 0.881325 17.4027 0.232595 19.0685 0.0518518C20.7343 -0.128892 22.4169 0.165569 23.9258 0.901906C25.4347 1.63824 26.7097 2.78705 27.6065 4.21832C28.5032 5.64958 28.9859 7.30614 29 9.0005V9.0005Z" fill="#F79F14"/>
</g>
<defs>
<clipPath id="clip0_4_5">
<rect width="29" height="18" fill="white"/>
</clipPath>
</defs>
</svg>
