<svg width="62" height="17" viewBox="0 0 62 17" fill="none" xmlns="http://www.w3.org/2000/svg">
<g clip-path="url(#clip0_4_9)">
<path fill-rule="evenodd" clip-rule="evenodd" d="M5.73495 2.90123e-05C6.40922 -0.0801165 7.08809 0.106165 7.62833 0.519568C8.16857 0.932971 8.52793 1.54117 8.63058 2.21583C9.10049 3.80902 9.84882 6.41927 10.8755 10.0466H11.2926C12.3937 6.22292 13.1501 3.61266 13.5616 2.21583C13.7015 1.50525 14.1104 0.877057 14.7022 0.46369C15.2939 0.0503217 16.0222 -0.115915 16.7335 2.90123e-05H22.1692V17H16.6282V6.98388H16.257L13.1685 17.0011H8.99761L5.91221 6.97654H5.53996V17.0011H0V2.90123e-05H5.73495ZM30.1241 2.90123e-05V10.0277H30.5662L34.32 1.78503C34.5181 1.31615 34.8321 0.905994 35.2324 0.59356C35.6326 0.281127 36.1057 0.0768062 36.6067 2.90123e-05H41.9683V17H36.3126V6.97654H35.8695L32.1877 15.2192C31.976 15.6919 31.6489 16.1032 31.2367 16.4147C30.8245 16.7263 30.3406 16.928 29.8301 17.0011H24.4684V2.90123e-05H30.1241ZM61.5204 8.08024C61.0222 9.25711 60.1818 10.2552 59.1095 10.9435C58.0371 11.6318 56.7829 11.9783 55.5112 11.9374H49.5771V17.0011H44.1987V8.08024H61.5204Z" fill="#06764D"/>
<path fill-rule="evenodd" clip-rule="evenodd" d="M55.7677 0.00315972H43.9161C44.1987 3.78699 47.4405 7.02579 50.7981 7.02579H61.8937C62.0568 6.14183 62.0184 5.2322 61.7814 4.36531C61.5443 3.49841 61.1148 2.69684 60.5252 2.02086C59.9355 1.34489 59.201 0.812131 58.377 0.462649C57.553 0.113167 56.6608 -0.0439355 55.7677 0.00315972V0.00315972Z" fill="url(#paint0_linear_4_9)"/>
</g>
<defs>
<linearGradient id="paint0_linear_4_9" x1="44" y1="3.5" x2="62" y2="3.5" gradientUnits="userSpaceOnUse">
<stop stop-color="#00AFFF"/>
<stop offset="1" stop-color="#195DD8"/>
</linearGradient>
<clipPath id="clip0_4_9">
<rect width="62" height="17" fill="white"/>
</clipPath>
</defs>
</svg>
