<svg width="41" height="17" viewBox="0 0 41 17" fill="none" xmlns="http://www.w3.org/2000/svg">
<g clip-path="url(#clip0_4_32)">
<path fill-rule="evenodd" clip-rule="evenodd" d="M19.15 -1.94485e-06C19.2414 0.154817 19.3285 0.31229 19.426 0.462685C20.0486 1.41342 20.6726 2.36298 21.2981 3.31135C21.756 4.00583 22.2174 4.69853 22.6778 5.39212C23.1694 6.13702 23.6601 6.8828 24.1499 7.62947C24.3534 7.93823 24.5577 8.24875 24.7682 8.56193L23.5204 9.25109C22.6293 9.74474 21.7382 10.2384 20.8471 10.732C20.4039 10.9771 19.9572 11.2177 19.5139 11.4628C18.6223 11.9553 17.7312 12.4486 16.8407 12.9429C16.3664 13.2083 15.8921 13.4604 15.4135 13.7223C14.535 14.2077 13.6575 14.6945 12.7808 15.1829C12.3289 15.4332 11.8744 15.6801 11.4208 15.9287C10.831 16.2519 10.2414 16.5762 9.65218 16.9018C9.60855 16.9316 9.56783 16.9657 9.53059 17.0035H9.47023C9.31328 16.7682 9.15634 16.532 8.99853 16.2958C8.47365 15.5185 7.94848 14.7414 7.42303 13.9647L5.62419 11.3035C5.12116 10.5604 4.61784 9.81758 4.11423 9.07504C3.53387 8.21248 2.9561 7.35168 2.37489 6.48735C1.70858 5.50005 1.04056 4.51363 0.370807 3.5281C0.252666 3.3547 0.124177 3.18927 0 3.01675V2.98844L0.647618 2.88494C1.07017 2.81859 1.49271 2.75047 1.91612 2.68588C2.2852 2.62927 2.65515 2.57884 3.02423 2.52045C3.44678 2.4541 3.8676 2.3789 4.29101 2.31255C4.71442 2.2462 5.15852 2.18693 5.59142 2.12057C6.03897 2.05157 6.48567 1.97637 6.93236 1.90737C7.35577 1.8419 7.78004 1.78174 8.20259 1.71539C8.70361 1.63666 9.20377 1.55084 9.70565 1.4721C10.1368 1.40487 10.5628 1.34736 10.9914 1.28101C11.5028 1.20139 12.0133 1.11823 12.5238 1.03507C12.892 0.974915 13.2594 0.911218 13.6284 0.852829C13.9139 0.80771 14.2002 0.764361 14.4856 0.723666L15.6066 0.54673L16.5069 0.407835C16.8717 0.3521 17.2356 0.29725 17.5995 0.240631C17.9634 0.184011 18.3368 0.125623 18.705 0.063695C18.8033 0.0477708 18.8999 0.0176916 18.9974 -0.00531006L19.15 -1.94485e-06ZM5.52502 7.86303C5.52502 8.86979 5.52502 9.87656 5.52502 10.8824C5.52502 11.0337 5.55606 11.0912 5.71646 11.0886C6.29825 11.0785 6.87976 11.0785 7.46097 11.0886C7.61188 11.0886 7.64638 11.0381 7.64552 10.8931C7.63862 10.2605 7.64552 9.62708 7.64552 8.99453C7.64552 8.87599 7.68087 8.83441 7.8016 8.82821C8.09911 8.81406 8.39748 8.79725 8.69153 8.75302C9.25028 8.68477 9.78617 8.48527 10.2575 8.17001C10.542 7.9878 10.7716 7.72812 10.9206 7.41993C11.0697 7.11175 11.1324 6.76715 11.1018 6.42454C11.0785 6.08521 10.9604 5.75996 10.7616 5.48773C10.5627 5.2155 10.2916 5.00784 9.98073 4.88962C9.45568 4.65613 8.89191 4.52791 8.31987 4.51186C7.4463 4.45975 6.56982 4.50036 5.70439 4.63306C5.56641 4.6543 5.51381 4.70207 5.51467 4.85777C5.52674 5.86011 5.52329 6.86157 5.52329 7.86303H5.52502ZM17.0804 8.86537C16.9726 8.92641 16.895 8.9733 16.8148 9.01488C16.6126 9.13145 16.4045 9.23688 16.1913 9.33071C15.7414 9.49344 15.2606 9.54585 14.7874 9.48376C14.4875 9.47772 14.1994 9.36261 13.9745 9.15894C13.7496 8.95528 13.6025 8.67629 13.5594 8.37172C13.4733 7.96428 13.4822 7.54174 13.5853 7.13848C13.6346 6.87048 13.7651 6.62528 13.9582 6.43783C14.1513 6.25039 14.3971 6.13025 14.6607 6.09456C14.9478 6.06515 15.2374 6.07199 15.523 6.1149C15.9343 6.13842 16.3273 6.2969 16.644 6.56697C16.7674 6.67933 16.9088 6.77045 17.0597 6.88457C17.0685 6.83807 17.0748 6.79111 17.0787 6.74391C17.0838 6.46966 17.07 6.19275 17.0968 5.92027C17.1065 5.81045 17.0887 5.6999 17.0451 5.59912C17.0014 5.49833 16.9335 5.41063 16.8476 5.34435C16.4821 4.97439 16.0319 4.70454 15.5383 4.55955C15.0447 4.41456 14.5235 4.39907 14.0225 4.51452C13.4894 4.59866 12.988 4.82785 12.5704 5.17823C12.1529 5.52862 11.8346 5.98739 11.6485 6.50682C11.3461 7.30724 11.3215 8.19004 11.5787 9.00692C11.6913 9.39902 11.8868 9.76085 12.1512 10.0667C12.4156 10.3725 12.7424 10.6148 13.1084 10.7763C13.5194 10.9652 13.9602 11.0767 14.4097 11.1054C15.3046 11.2268 16.213 11.0284 16.9821 10.5436C17.0189 10.5228 17.049 10.4915 17.0689 10.4535C17.0888 10.4156 17.0976 10.3725 17.0942 10.3295C17.0942 9.89868 17.0942 9.46872 17.0942 9.03788C17.0873 8.99276 17.0821 8.94411 17.0761 8.86537H17.0804ZM18.0626 4.5039V11.0744C18.1247 11.0744 18.179 11.0833 18.2351 11.0833C18.8059 11.0833 19.3777 11.0833 19.9485 11.0833C20.0831 11.0833 20.1322 11.0496 20.1314 10.9019C20.1268 8.82232 20.1268 6.74273 20.1314 4.66314C20.1314 4.52425 20.09 4.48621 19.9589 4.48621C19.3777 4.4924 18.7964 4.48621 18.2152 4.48621C18.16 4.49505 18.1109 4.50036 18.0583 4.5039H18.0626ZM19.0655 4.1173C19.2582 4.12586 19.4499 4.08397 19.6224 3.99557C19.795 3.90717 19.9428 3.77516 20.0519 3.61198C20.161 3.44881 20.2279 3.25982 20.2461 3.06283C20.2644 2.86583 20.2335 2.66731 20.1564 2.48595C20.0368 2.23436 19.8381 2.03148 19.5922 1.91011C19.3464 1.78875 19.0679 1.75599 18.8016 1.81713C18.5147 1.86484 18.2568 2.02416 18.0814 2.26196C17.9061 2.49977 17.8268 2.79776 17.8602 3.09397C17.8935 3.39018 18.0368 3.66182 18.2603 3.85241C18.4838 4.043 18.7704 4.13787 19.0603 4.1173H19.0655ZM7.63775 6.65721C7.63775 6.4962 7.63775 6.33607 7.63775 6.17506C7.63775 6.09367 7.6688 6.03882 7.75245 6.05032C8.04204 6.07877 8.32991 6.12337 8.61479 6.18391C8.71292 6.20341 8.80125 6.2577 8.86431 6.33727C8.92737 6.41684 8.96114 6.51663 8.95972 6.61917C8.96372 6.72359 8.93532 6.82662 8.8786 6.91342C8.82188 7.00023 8.73978 7.06633 8.64411 7.1022C8.35384 7.22407 8.04176 7.28165 7.7283 7.27118C7.69812 7.27118 7.64207 7.19775 7.64207 7.15529C7.63172 6.98985 7.63775 6.82088 7.63775 6.65721ZM25.7003 2.28866H27.6708C28.0124 2.27707 28.354 2.31217 28.6866 2.39306C28.9943 2.48403 29.2725 2.6582 29.4921 2.89732C29.7224 3.15089 29.8962 3.45274 30.0017 3.782C30.1273 4.20127 30.1855 4.63871 30.1742 5.07717C30.1823 5.47243 30.127 5.86638 30.0103 6.24318C29.8972 6.60769 29.7012 6.93941 29.4386 7.21102C29.2227 7.41495 28.9635 7.56457 28.6815 7.64805C28.3706 7.73484 28.0489 7.7739 27.7268 7.76394H25.7003V2.28866ZM26.7783 3.21581V6.84299H27.5828C27.8014 6.85063 28.02 6.83312 28.2348 6.7908C28.3947 6.75244 28.5428 6.67402 28.6659 6.56255C28.8041 6.41435 28.9014 6.23117 28.9479 6.03174C29.0306 5.70435 29.0675 5.36656 29.0574 5.02852C29.0687 4.70033 29.0318 4.37228 28.9479 4.05537C28.8906 3.85501 28.7854 3.67253 28.6418 3.52456C28.5021 3.39284 28.3296 3.30342 28.1434 3.26623C27.8506 3.22145 27.5545 3.20398 27.2586 3.21404L26.7783 3.21581ZM30.8175 5.98485L31.8669 5.88046C31.901 6.18368 32.037 6.46525 32.2516 6.67667C32.4732 6.85595 32.751 6.94622 33.0328 6.93058C33.3122 6.95131 33.5897 6.87119 33.8176 6.7041C33.8984 6.64238 33.9642 6.56238 34.0099 6.47032C34.0557 6.37826 34.0802 6.27662 34.0814 6.17329C34.0845 6.05284 34.045 5.93531 33.9702 5.84242C33.8629 5.73037 33.7293 5.6487 33.5821 5.60533C33.4562 5.5605 33.1688 5.48088 32.7198 5.36646C32.2792 5.28344 31.8629 5.09792 31.503 4.82416C31.3472 4.68878 31.2223 4.51981 31.1373 4.32928C31.0524 4.13875 31.0094 3.93135 31.0115 3.72184C31.0113 3.44315 31.0918 3.17068 31.2426 2.9389C31.4052 2.68925 31.6375 2.49588 31.9092 2.38421C32.2433 2.24907 32.6005 2.18438 32.9595 2.194C33.5001 2.15371 34.0368 2.3145 34.4712 2.64696C34.6394 2.79699 34.7742 2.98242 34.8663 3.19064C34.9584 3.39887 35.0057 3.625 35.005 3.85366L33.9271 3.90232C33.9054 3.66916 33.7996 3.45272 33.6304 3.29543C33.4292 3.15748 33.1888 3.09241 32.9475 3.11053C32.688 3.09531 32.4306 3.16468 32.2119 3.3087C32.1575 3.34602 32.1133 3.39679 32.0831 3.45633C32.053 3.51586 32.0379 3.58223 32.0394 3.6493C32.0396 3.71363 32.0542 3.77706 32.082 3.83472C32.1098 3.89239 32.1501 3.94275 32.1998 3.98194C32.5049 4.16644 32.841 4.29066 33.1906 4.3482C33.5924 4.43251 33.9831 4.56494 34.3548 4.74276C34.597 4.87025 34.8009 5.0629 34.9446 5.30011C35.0912 5.56967 35.1646 5.87463 35.1572 6.1832C35.1498 6.49176 35.0618 6.79263 34.9024 7.05443C34.7303 7.3305 34.4782 7.54429 34.1815 7.66574C33.8108 7.8098 33.4161 7.87773 33.0199 7.86568C32.4629 7.90295 31.9116 7.73233 31.4677 7.3853C31.0835 7.02126 30.8506 6.51944 30.8175 5.98397V5.98485ZM35.7932 5.98485L36.8427 5.88046C36.8768 6.18364 37.0128 6.46516 37.2273 6.67667C37.449 6.85588 37.7267 6.94614 38.0085 6.93058C38.2879 6.95123 38.5654 6.87112 38.7933 6.7041C38.8741 6.64238 38.9399 6.56238 38.9857 6.47032C39.0314 6.37826 39.0559 6.27662 39.0571 6.17329C39.0603 6.05283 39.0208 5.93527 38.9459 5.84242C38.8386 5.73041 38.705 5.64873 38.5579 5.60533C38.4314 5.5605 38.1439 5.48088 37.6955 5.36646C37.2549 5.28344 36.8386 5.09792 36.4787 4.82416C36.3229 4.68878 36.198 4.51981 36.1131 4.32928C36.0281 4.13875 35.9851 3.93135 35.9872 3.72184C35.987 3.44315 36.0675 3.17068 36.2183 2.9389C36.3808 2.68921 36.6132 2.49584 36.8849 2.38421C37.2193 2.24895 37.5768 2.18426 37.9361 2.194C38.4772 2.15294 39.0145 2.31345 39.4495 2.64607C39.6177 2.7961 39.7525 2.98153 39.8446 3.18976C39.9367 3.39798 39.984 3.62412 39.9833 3.85278L38.9045 3.90143C38.8829 3.66825 38.7771 3.45178 38.6079 3.29454C38.4053 3.15595 38.1633 3.09114 37.9206 3.11053C37.6612 3.09537 37.4037 3.16473 37.185 3.3087C37.1307 3.34602 37.0864 3.39679 37.0562 3.45633C37.0261 3.51586 37.0111 3.58223 37.0125 3.6493C37.0127 3.71364 37.0272 3.7771 37.055 3.83477C37.0828 3.89244 37.1232 3.94279 37.1729 3.98194C37.478 4.16647 37.8141 4.2907 38.1638 4.3482C38.5653 4.43251 38.9557 4.56494 39.3271 4.74276C39.5696 4.87011 39.7738 5.06278 39.9178 5.30011C40.0643 5.56967 40.1377 5.87463 40.1303 6.1832C40.1229 6.49176 40.0349 6.79263 39.8755 7.05443C39.7034 7.3305 39.4513 7.54429 39.1546 7.66574C38.7836 7.80989 38.3887 7.87783 37.9922 7.86568C37.4352 7.90287 36.8839 7.73226 36.4399 7.3853C36.0571 7.02062 35.8255 6.51891 35.7932 5.98397V5.98485ZM26.9197 10.5967L27.2853 10.7161C27.2453 10.8991 27.147 11.0631 27.0059 11.1823C26.8371 11.298 26.6346 11.3503 26.4326 11.3305C26.2305 11.3107 26.0413 11.2199 25.897 11.0735C25.7291 10.8769 25.6431 10.6206 25.6572 10.3596C25.6409 10.0893 25.7271 9.823 25.8978 9.61646C25.9788 9.52832 26.0773 9.45902 26.1867 9.41324C26.296 9.36745 26.4136 9.34625 26.5316 9.35106C26.7368 9.34201 26.9372 9.41677 27.0887 9.55896C27.1828 9.65678 27.249 9.77916 27.2802 9.91283L26.9068 10.0013C26.8897 9.90805 26.8404 9.82421 26.7681 9.76509C26.6958 9.70598 26.6051 9.67552 26.5127 9.67928C26.4489 9.67725 26.3855 9.68995 26.3271 9.71644C26.2688 9.74293 26.2169 9.78253 26.1755 9.83233C26.0771 9.97681 26.0313 10.1522 26.0461 10.3277C26.0299 10.5101 26.075 10.6927 26.1738 10.8453C26.2139 10.8952 26.2645 10.9351 26.3219 10.9619C26.3793 10.9888 26.4419 11.0018 26.5049 11.0001C26.6001 11.0019 26.6925 10.9668 26.7636 10.9019C26.8452 10.8188 26.8997 10.7119 26.9197 10.5958V10.5967ZM27.5328 10.3543C27.5281 10.186 27.5574 10.0185 27.6191 9.8624C27.6606 9.76409 27.7191 9.6742 27.7915 9.597C27.8593 9.52162 27.9415 9.46139 28.033 9.42006C28.161 9.36946 28.2977 9.3457 28.4348 9.35017C28.557 9.34471 28.679 9.36549 28.7929 9.41119C28.9068 9.4569 29.0101 9.52651 29.0962 9.61558C29.2561 9.82315 29.3431 10.08 29.3431 10.3446C29.3431 10.6091 29.2561 10.866 29.0962 11.0735C28.9154 11.2419 28.6799 11.3351 28.4357 11.3351C28.1915 11.3351 27.956 11.2419 27.7751 11.0735C27.6904 10.9759 27.6253 10.8619 27.5838 10.7383C27.5422 10.6147 27.5249 10.4839 27.5328 10.3534V10.3543ZM27.9217 10.341C27.9092 10.5185 27.9615 10.6945 28.0683 10.8347C28.1155 10.8875 28.1729 10.9296 28.2368 10.9585C28.3007 10.9873 28.3698 11.0022 28.4396 11.0022C28.5094 11.0022 28.5785 10.9873 28.6424 10.9585C28.7063 10.9296 28.7636 10.8875 28.8108 10.8347C28.9174 10.6917 28.969 10.5134 28.9557 10.3339C28.9691 10.1579 28.9191 9.98286 28.8151 9.84206C28.7664 9.79053 28.7081 9.74956 28.6437 9.72159C28.5792 9.69361 28.51 9.6792 28.44 9.6792C28.37 9.6792 28.3008 9.69361 28.2363 9.72159C28.1719 9.74956 28.1136 9.79053 28.0649 9.84206C27.9587 9.98451 27.9077 10.1623 27.9217 10.341ZM29.6352 11.3009V9.38645H30.2L30.5389 10.694L30.8744 9.38645H31.4401V11.3035H31.0891V9.79163L30.7183 11.3009H30.3553L29.987 9.79163V11.3009H29.6352ZM31.8152 11.3009V9.38645H32.4188C32.5689 9.38017 32.7191 9.38966 32.8673 9.41476C32.9751 9.44407 33.07 9.51023 33.1363 9.60231C33.2124 9.7107 33.2507 9.84221 33.245 9.97564C33.2482 10.0782 33.2269 10.1799 33.1829 10.272C33.1456 10.3473 33.0912 10.4122 33.0242 10.4613C32.9653 10.5038 32.8988 10.5338 32.8285 10.5498C32.6991 10.5712 32.568 10.5804 32.437 10.5772H32.1912V11.3009H31.8152ZM32.1929 9.70847V10.2525H32.3999C32.5002 10.2583 32.6009 10.2481 32.6982 10.2225C32.7462 10.2043 32.7875 10.1712 32.8164 10.1278C32.8455 10.0837 32.8605 10.0315 32.8595 9.9783C32.8628 9.91348 32.8411 9.84995 32.7991 9.80136C32.7601 9.75472 32.7064 9.72345 32.6474 9.71289C32.5573 9.70156 32.4665 9.69713 32.3757 9.69962L32.1929 9.70847ZM33.5675 11.3009V9.39883H33.9452V10.9789H34.8834V11.3018L33.5675 11.3009ZM35.1404 9.38645H35.5181V11.3035H35.1404V9.38645ZM37.5627 11.3035H37.1522L36.9893 10.8683H36.2425L36.0881 11.3035H35.6871L36.4149 9.38645H36.8142L37.5627 11.3035ZM36.8677 10.5454L36.609 9.83763L36.3563 10.5454H36.8677ZM37.7662 11.3035V9.38645H38.1336L38.8985 10.6666V9.38645H39.2494V11.3035H38.8692L38.1155 10.0535V11.3035H37.7662ZM40.0687 11.3035V9.71112H39.5142V9.38645H40.9991V9.71112H40.4455V11.3035H40.0687Z" fill="#225E63"/>
</g>
<defs>
<clipPath id="clip0_4_32">
<rect width="41" height="17" fill="white"/>
</clipPath>
</defs>
</svg>
