<svg width="28" height="17" viewBox="0 0 28 17" fill="none" xmlns="http://www.w3.org/2000/svg">
<g clip-path="url(#clip0_232_2)">
<path d="M5.35382 0.00012207H12.1774C13.1299 0.00012207 13.7223 0.771141 13.5 1.72022L10.3232 15.2655C10.099 16.2114 9.14538 16.9831 8.19221 16.9831H1.36934C0.418166 16.9831 -0.175589 16.2114 0.0466119 15.2655L3.22478 1.72022C3.44699 0.771141 4.40015 0.00012207 5.35382 0.00012207Z" fill="#E21836"/>
<path d="M11.6097 0.00012207H19.4567C20.409 0.00012207 19.9795 0.771141 19.7555 1.72022L16.5791 15.2655C16.3563 16.2114 16.4258 16.9831 15.4715 16.9831H7.6246C6.67026 16.9831 6.07966 16.2114 6.30386 15.2655L9.48004 1.72022C9.70557 0.771141 10.6567 0.00012207 11.6097 0.00012207Z" fill="#00447C"/>
<path d="M19.145 0.00012207H25.9686C26.9224 0.00012207 27.5149 0.771141 27.2909 1.72022L24.1145 15.2655C23.8903 16.2114 22.9359 16.9831 21.9823 16.9831H15.162C14.2076 16.9831 13.6157 16.2114 13.8392 15.2655L17.0161 1.72022C17.2383 0.771141 18.1907 0.00012207 19.145 0.00012207Z" fill="#007B84"/>
<path d="M7.13561 4.34093C6.43391 4.34804 6.22667 4.34093 6.16048 4.32541C6.13504 4.44549 5.66153 6.61468 5.66019 6.6165C5.55824 7.05536 5.48407 7.3682 5.23209 7.5702C5.08906 7.68764 4.92207 7.74429 4.72848 7.74429C4.4173 7.74429 4.23601 7.59084 4.20557 7.29981L4.19975 7.19989C4.19975 7.19989 4.29456 6.61204 4.29456 6.60873C4.29456 6.60873 4.79151 4.63197 4.8805 4.37067C4.88515 4.35581 4.88649 4.34804 4.88764 4.34093C3.92034 4.34936 3.74886 4.34093 3.73706 4.32541C3.73057 4.34671 3.70663 4.46927 3.70663 4.46927L3.19918 6.69727L3.15561 6.88623L3.07129 7.50429C3.07129 7.68764 3.10755 7.83728 3.17973 7.9638C3.41091 8.365 4.07036 8.42512 4.44341 8.42512C4.92407 8.42512 5.37496 8.3237 5.67965 8.13855C6.20855 7.8282 6.34692 7.34309 6.47034 6.91199L6.52754 6.69082C6.52754 6.69082 7.03947 4.63775 7.12646 4.37067C7.12978 4.35581 7.13111 4.34804 7.13561 4.34093ZM8.8774 5.99717C8.75399 5.99717 8.52847 6.02691 8.32589 6.12551C8.25238 6.163 8.18286 6.20628 8.10951 6.24939L8.17571 6.01204L8.13945 5.97207C7.70985 6.05845 7.61371 6.07001 7.21689 6.12551L7.18362 6.14748C7.13754 6.52688 7.09663 6.81213 6.92583 7.55788C6.8608 7.83272 6.79327 8.1102 6.72558 8.38439L6.74387 8.41924C7.15052 8.39794 7.27393 8.39793 7.62736 8.40372L7.65596 8.37283C7.70087 8.1444 7.70669 8.09088 7.80614 7.62823C7.85289 7.40889 7.95034 6.92692 7.99841 6.75531C8.08673 6.71468 8.17388 6.6747 8.25703 6.6747C8.45512 6.6747 8.43101 6.84632 8.42336 6.9147C8.41487 7.02949 8.34269 7.40443 8.26867 7.72635L8.21928 7.93414C8.18486 8.08758 8.1471 8.23673 8.11267 8.38886L8.12764 8.41924C8.52847 8.39794 8.65071 8.39793 8.99299 8.40372L9.03324 8.37283C9.09511 8.01606 9.11324 7.92059 9.22301 7.40112L9.27823 7.16245C9.38551 6.69535 9.43939 6.4585 9.35823 6.26558C9.27241 6.04937 9.0665 5.99717 8.8774 5.99717ZM10.8232 6.48623C10.6101 6.52686 10.4743 6.55395 10.3392 6.57146C10.2053 6.59276 10.0748 6.61209 9.86886 6.6405L9.85255 6.6552L9.83758 6.66693C9.81613 6.81921 9.80117 6.95086 9.77273 7.10562C9.74861 7.26567 9.71152 7.44752 9.65115 7.70882C9.60442 7.90885 9.5803 7.97855 9.55368 8.04891C9.52774 8.11928 9.49913 8.18766 9.44658 8.38437L9.45888 8.40254L9.46919 8.41922C9.66162 8.41014 9.78753 8.4037 9.91693 8.40254C10.0462 8.39792 10.18 8.40254 10.3873 8.4037L10.4054 8.389L10.4249 8.37281C10.4548 8.19542 10.4593 8.14769 10.4776 8.06114C10.4957 7.96831 10.527 7.83981 10.6036 7.49658C10.6399 7.33538 10.6803 7.17466 10.7179 7.01016C10.757 6.8463 10.798 6.68493 10.8368 6.52372L10.831 6.50424L10.8232 6.48623ZM10.8277 5.82683C10.6341 5.71336 10.2943 5.74937 10.0657 5.90611C9.83764 6.05973 9.81169 6.27775 10.0046 6.39271C10.1949 6.50305 10.536 6.47017 10.7628 6.3121C10.9902 6.15519 11.0187 5.93915 10.8277 5.82683ZM11.9986 8.45478C12.3903 8.45478 12.7917 8.34759 13.0939 8.02948C13.3264 7.77147 13.4331 7.38762 13.47 7.22955C13.5902 6.70562 13.4965 6.461 13.3789 6.31202C13.2004 6.08491 12.8846 6.01208 12.5572 6.01208C12.3603 6.01208 11.8913 6.0314 11.5248 6.36685C11.2617 6.60884 11.1402 6.93719 11.0668 7.25201C10.9928 7.57277 10.9076 8.15021 11.4423 8.3651C11.6073 8.43546 11.8451 8.45478 11.9986 8.45478ZM11.968 7.27596C12.0583 6.87922 12.1648 6.54624 12.4369 6.54624C12.6501 6.54624 12.6656 6.79399 12.5708 7.19206C12.5538 7.28042 12.4761 7.60895 12.3708 7.74885C12.2973 7.85208 12.2103 7.91467 12.1141 7.91467C12.0855 7.91467 11.9153 7.91467 11.9127 7.66378C11.9114 7.53991 11.9368 7.41339 11.968 7.27596ZM14.449 8.40376L14.4796 8.37288C14.5231 8.14445 14.5302 8.09077 14.6264 7.62829C14.6744 7.40894 14.7738 6.92697 14.8206 6.75536C14.9091 6.71456 14.9948 6.67459 15.0806 6.67459C15.2773 6.67459 15.2534 6.8462 15.2455 6.91458C15.2384 7.02955 15.1663 7.40431 15.0908 7.72624L15.0442 7.93402C15.0083 8.08763 14.9695 8.23661 14.9351 8.3889L14.95 8.4193C15.3522 8.39798 15.4698 8.39798 15.8141 8.40376L15.8556 8.37288C15.916 8.01594 15.9323 7.92047 16.0454 7.40118L16.0993 7.16234C16.207 6.69523 16.2616 6.45855 16.1818 6.26563C16.0934 6.04942 15.8862 5.99722 15.6998 5.99722C15.5762 5.99722 15.3495 6.02679 15.1481 6.12556C15.0761 6.16306 15.0039 6.20616 14.933 6.24944L14.9948 6.01209L14.9617 5.97196C14.5323 6.05851 14.434 6.07007 14.0378 6.12556L14.0073 6.14753C13.9592 6.52693 13.9202 6.81201 13.7493 7.55793C13.6844 7.83276 13.6168 8.11026 13.5492 8.38444L13.5674 8.4193C13.9747 8.39798 14.0963 8.39798 14.449 8.40376ZM17.4038 8.41921C17.4291 8.29665 17.5793 7.57023 17.5806 7.57023C17.5806 7.57023 17.7085 7.03722 17.7163 7.0179C17.7163 7.0179 17.7565 6.9624 17.7968 6.94043H17.856C18.4146 6.94043 19.0455 6.94043 19.5399 6.57921C19.8764 6.33144 20.1064 5.96559 20.209 5.52096C20.2357 5.41194 20.2554 5.28228 20.2554 5.15262C20.2554 4.98233 20.2209 4.81385 20.1214 4.68222C19.8692 4.33188 19.3671 4.32544 18.7876 4.32281C18.7858 4.32281 18.5018 4.32544 18.5018 4.32544C17.7599 4.33453 17.4623 4.33189 17.34 4.31702C17.3298 4.3707 17.3103 4.46617 17.3103 4.46617C17.3103 4.46617 17.0445 5.68943 17.0445 5.69141C17.0445 5.69141 16.4085 8.29219 16.3787 8.41475C17.0264 8.40698 17.292 8.40698 17.4038 8.41921ZM17.8963 6.24622C17.8963 6.24622 18.1788 5.02544 18.1775 5.03006L18.1866 4.96747L18.1906 4.91973L18.3036 4.93129C18.3036 4.93129 18.8863 4.981 18.9 4.98233C19.1299 5.0707 19.2248 5.29847 19.1586 5.59578C19.0983 5.86748 18.9208 6.09592 18.6928 6.20625C18.5049 6.29974 18.275 6.30749 18.0379 6.30749H17.8846L17.8963 6.24622ZM19.6556 7.29857C19.5809 7.61471 19.4951 8.19215 20.0271 8.39795C20.1968 8.46964 20.3489 8.49094 20.5034 8.48319C20.6665 8.47443 20.8177 8.39316 20.9577 8.27622C20.9451 8.32429 20.9325 8.37236 20.9199 8.42058L20.9439 8.45147C21.3266 8.43545 21.4454 8.43545 21.86 8.43858L21.8976 8.41017C21.9582 8.05671 22.0152 7.71348 22.1725 7.03727C22.2492 6.71337 22.3257 6.39261 22.4044 6.07004L22.392 6.03452C21.9639 6.11331 21.8496 6.13015 21.4377 6.18813L21.4064 6.2134C21.4023 6.24627 21.398 6.27782 21.394 6.30936C21.3299 6.20663 21.2372 6.11892 21.0939 6.06426C20.9109 5.99273 20.4808 6.0849 20.111 6.4192C19.8513 6.65787 19.7265 6.98491 19.6556 7.29857ZM20.5547 7.3179C20.6464 6.92826 20.7517 6.59858 21.0244 6.59858C21.1968 6.59858 21.2877 6.75664 21.2693 7.02621C21.2546 7.09344 21.2388 7.16429 21.2201 7.24439C21.1928 7.36019 21.1631 7.47498 21.1344 7.58993C21.1051 7.66856 21.071 7.74272 21.0336 7.7921C20.9634 7.89087 20.7964 7.95216 20.7003 7.95216C20.673 7.95216 20.5046 7.95216 20.4989 7.70572C20.4976 7.583 20.5229 7.45664 20.5547 7.3179ZM25.25 6.03136L25.2169 5.99388C24.7932 6.0791 24.7166 6.09265 24.3274 6.14484L24.2989 6.17325C24.2975 6.17787 24.2963 6.18498 24.2944 6.19142L24.293 6.18498C24.0032 6.84879 24.0117 6.70559 23.7759 7.22819C23.7746 7.20441 23.7746 7.18955 23.7732 7.16427L23.7142 6.03136L23.6771 5.99388C23.2334 6.0791 23.2229 6.09265 22.8131 6.14484L22.7811 6.17325C22.7766 6.18679 22.7766 6.20166 22.7741 6.21784L22.7766 6.22362C22.8279 6.4836 22.8156 6.42563 22.867 6.83592C22.8909 7.03726 22.9229 7.23975 22.9468 7.43862C22.9872 7.77144 23.0099 7.9353 23.0593 8.44319C22.7825 8.89675 22.7169 9.06837 22.4505 9.46642L22.4523 9.4704L22.2647 9.76506C22.2433 9.79611 22.2238 9.81742 22.1965 9.8265C22.1666 9.8412 22.1277 9.84384 22.0736 9.84384H21.9697L21.8152 10.3542L22.3453 10.3633C22.6564 10.362 22.8521 10.2175 22.9573 10.0232L23.2906 9.45602H23.2852L23.3203 9.41605C23.5446 8.93672 25.25 6.03136 25.25 6.03136ZM19.6556 12.7345H19.4308L20.2631 10.0007H20.5391L20.6267 9.71905L20.6353 10.0322C20.6249 10.2258 20.7783 10.3974 21.1811 10.369H21.6469L21.8073 9.8426H21.632C21.5312 9.8426 21.4844 9.81733 21.4903 9.76316L21.4818 9.44455H20.6191V9.44619C20.3402 9.45197 19.5073 9.47279 19.3386 9.51738C19.1345 9.56958 18.9195 9.72319 18.9195 9.72319L19.004 9.44124H18.197L18.0288 10.0007L17.1854 12.7762H17.0218L16.8613 13.2989H18.4686L18.4147 13.4731H19.2068L19.2593 13.2989H19.4815L19.6556 12.7345ZM18.9962 10.5561C18.867 10.5917 18.6265 10.6993 18.6265 10.6993L18.8403 10.0007H19.4815L19.3268 10.5097C19.3268 10.5097 19.1287 10.5213 18.9962 10.5561ZM19.0085 11.5542C19.0085 11.5542 18.8071 11.5794 18.6745 11.6091C18.544 11.6484 18.2991 11.7723 18.2991 11.7723L18.52 11.0452H19.1645L19.0085 11.5542ZM18.6493 12.7408H18.006L18.1925 12.1272H18.8337L18.6493 12.7408ZM20.1981 11.0452H21.1252L20.9919 11.4737H20.0525L19.9115 11.942H20.7335L20.1111 12.8123C20.0675 12.8763 20.0284 12.8989 19.985 12.9169C19.9415 12.9389 19.8842 12.9647 19.818 12.9647H19.59L19.4334 13.4777H20.0297C20.3398 13.4777 20.5229 13.3376 20.6582 13.1538L21.0848 12.5737L21.1765 13.1628C21.196 13.273 21.2758 13.3376 21.3298 13.3627C21.3895 13.3925 21.4513 13.4435 21.5385 13.4511C21.6319 13.455 21.6995 13.4582 21.7443 13.4582H22.0373L22.2133 12.8841H22.0978C22.0314 12.8841 21.9171 12.873 21.8977 12.8524C21.8783 12.8272 21.8783 12.7886 21.8678 12.7298L21.7748 12.1395H21.394L21.561 11.942H22.4986L22.6428 11.4737H21.7748L21.91 11.0452H22.7753L22.9358 10.5168H20.3559L20.1981 11.0452ZM12.3681 12.8602L12.5845 12.1453H13.4738L13.6363 11.6136H12.7462L12.8821 11.1736H13.7519L13.913 10.6588H11.7367L11.5787 11.1736H12.0732L11.9413 11.6136H11.4455L11.2812 12.1544H11.7755L11.4872 13.1002C11.4482 13.2253 11.5055 13.273 11.5417 13.3313C11.5787 13.3879 11.6164 13.4254 11.7008 13.4467C11.788 13.466 11.8477 13.4776 11.9289 13.4776H12.9314L13.1101 12.8885L12.6656 12.9492C12.5798 12.9492 12.3422 12.939 12.3681 12.8602ZM12.4702 9.43802L12.2447 9.84253C12.1965 9.93088 12.1532 9.98573 12.114 10.011C12.0796 10.0323 12.0114 10.0412 11.9127 10.0412H11.7951L11.6379 10.5587H12.0284C12.2162 10.5587 12.3604 10.4903 12.4292 10.4561C12.5032 10.4168 12.5227 10.4393 12.5799 10.3844L12.7117 10.271H13.9312L14.0931 9.73219H13.2005L13.3562 9.43802H12.4702ZM14.2705 12.8706C14.2496 12.8408 14.2646 12.7884 14.2963 12.6794L14.6296 11.5839H15.8154C15.9881 11.5814 16.1129 11.5794 16.1941 11.5737C16.2812 11.5645 16.376 11.5336 16.4793 11.4782C16.5859 11.42 16.6404 11.3587 16.6866 11.2884C16.7379 11.2182 16.8204 11.0645 16.8912 10.8277L17.3102 9.44127L16.0798 9.44837C16.0798 9.44837 15.7009 9.50388 15.5341 9.56515C15.3658 9.63353 15.1253 9.82446 15.1253 9.82446L15.2363 9.44441H14.4763L13.4122 12.9492C13.3744 13.0853 13.3492 13.184 13.3434 13.2434C13.3414 13.3073 13.4245 13.3706 13.4784 13.4183C13.5421 13.466 13.6362 13.4582 13.7265 13.466C13.8215 13.4731 13.9566 13.4776 14.143 13.4776H14.7271L14.9064 12.8763L14.3835 12.9254C14.3276 12.9254 14.2873 12.8956 14.2705 12.8706ZM14.8448 10.844H16.0901L16.0109 11.0903C15.9998 11.0961 15.9732 11.0781 15.8465 11.093H14.7681L14.8448 10.844ZM15.0942 10.0174H16.3501L16.2598 10.3142C16.2598 10.3142 15.6678 10.3084 15.573 10.3258C15.1559 10.3974 14.9123 10.6188 14.9123 10.6188L15.0942 10.0174ZM16.0389 11.9156C16.0285 11.9525 16.0122 11.9749 15.9894 11.9918C15.9642 12.0079 15.9232 12.0137 15.8622 12.0137H15.6847L15.6952 11.7136H14.9571L14.9271 13.1808C14.926 13.2866 14.9362 13.3479 15.0143 13.397C15.0923 13.4582 15.3326 13.4661 15.6562 13.4661H16.1187L16.2857 12.9169L15.883 12.9388L15.7491 12.9465C15.7308 12.9388 15.7133 12.9318 15.6938 12.9124C15.6769 12.8957 15.6482 12.9059 15.653 12.8001L15.6562 12.424L16.0784 12.4067C16.3064 12.4067 16.4039 12.3329 16.487 12.2628C16.5664 12.1956 16.5923 12.1182 16.6223 12.0137L16.6931 11.6807H16.1128L16.0389 11.9156Z" fill="#FEFEFE"/>
</g>
<defs>
<clipPath id="clip0_232_2">
<rect width="27.3889" height="17" fill="white"/>
</clipPath>
</defs>
</svg>
