<svg width="58" height="18" viewBox="0 0 58 18" fill="none" xmlns="http://www.w3.org/2000/svg">
<g clip-path="url(#clip0_4_3)">
<path fill-rule="evenodd" clip-rule="evenodd" d="M16.4742 -2.77185e-05L11.9493 12.3804L11.4147 9.7144L9.81768 1.62168C9.72091 1.11641 9.43387 0.667061 9.01529 0.365594C8.59672 0.0641269 8.07825 -0.0666691 7.566 -2.77185e-05H0.0826824L0 0.303337L0.058897 0.31687C1.82336 0.791582 3.49798 1.55042 5.01644 2.56335L9.086 18H14.0311L21.5812 -2.77185e-05H16.4742ZM25.2125 18H20.2289L23.3447 -2.77185e-05H28.3283L25.2125 18ZM50.4702 5.53835L47.8833 12.4616H51.9302L50.4702 5.53835ZM54.3574 -2.77185e-05L58 18H52.4727L51.9393 15.3272H46.156L45.2069 18H40.4645L47.2502 1.34087C47.4102 0.923204 47.7005 0.56762 48.0785 0.326292C48.4564 0.0849631 48.9021 -0.029404 49.3501 -2.77185e-05H54.3574ZM41.1702 4.49292L41.8135 0.75782C40.5102 0.290487 39.14 0.0346121 37.7553 -2.77185e-05C35.5161 -2.77185e-05 30.1995 0.982241 30.1995 5.75149C30.1995 8.35659 32.2971 9.47306 34.0606 10.4057C35.3382 11.0824 36.4391 11.6677 36.4391 12.6612C36.4391 15.0205 30.8428 14.5987 28.9955 13.1123L28.3238 17.0166C29.9355 17.694 31.6715 18.0285 33.4207 17.9988C36.4992 17.9988 41.1441 16.3986 41.1441 12.0455C41.1441 9.32082 38.8573 8.0848 37.0406 7.10366C35.8422 6.45633 34.8478 5.91953 34.8478 5.138C34.8455 3.17233 39.2402 3.42495 41.1702 4.49292Z" fill="#00579F"/>
</g>
<defs>
<clipPath id="clip0_4_3">
<rect width="58" height="18" fill="white"/>
</clipPath>
</defs>
</svg>
