<svg width="17" height="17" viewBox="0 0 17 17" fill="none" xmlns="http://www.w3.org/2000/svg">
<g clip-path="url(#clip0_4_14)">
<path d="M8.45872 3.01967e-07C9.74603 -0.000343944 11.0169 0.29365 12.1771 0.860175C12.3585 0.94122 12.5335 1.03884 12.7104 1.13646L11.934 1.83455L10.7696 0.617042L8.76438 2.4037L7.58541 1.12081L3.897 4.45008L6.25494 7.06468L5.33353 7.87605L7.66341 10.4907L6.74194 11.302L10.0739 15.0209L12.0464 13.202L13.7615 15.1507C13.4072 15.4257 13.0344 15.6753 12.6459 15.8976C11.3715 16.6229 9.93504 17.0034 8.47417 17.0028C7.36767 17.0155 6.26969 16.8053 5.24369 16.3844C4.2177 15.9635 3.28405 15.3401 2.49678 14.5505C1.70952 13.7608 1.08428 12.8204 0.657173 11.7838C0.230067 10.7472 0.00956691 9.63484 0.00848787 8.51114C0.00740882 7.38743 0.225748 6.27466 0.650863 5.23718C1.07598 4.1997 1.69942 3.25812 2.48516 2.46688C3.2709 1.67565 4.20334 1.05048 5.22853 0.627518C6.25371 0.20456 7.35132 -0.00778745 8.45784 0.00276166L8.45872 3.01967e-07ZM6.90612 7.97643L8.92762 6.15754L10.7414 8.18365L8.71905 10.0025L6.90612 7.97643ZM8.3463 11.4835L10.3515 9.64889L12.1798 11.675L10.1574 13.4939L8.3463 11.4835ZM5.46776 4.51731L7.48927 2.69841L9.30308 4.72452L7.28069 6.54342L5.46776 4.51731ZM9.17068 3.54293L10.6752 2.17899L12.0356 3.68936L10.531 5.0708L9.17068 3.54293ZM11.856 9.79441L13.3597 8.43047L14.7201 9.9565L13.2155 11.3214L11.856 9.79441ZM13.1819 12.8575L14.6865 11.4936L16.0468 13.0039L14.5432 14.3854L13.1819 12.8575ZM13.7968 5.84257L14.7998 4.93358L15.7067 5.94111L14.7046 6.8501L13.7968 5.84257ZM12.5027 2.8384L13.5057 1.91744L14.4126 2.94062L13.4086 3.84961L12.5027 2.8384ZM15.0747 8.84674L16.0777 7.93775L17 8.94436L15.9816 9.85335L15.0747 8.84674ZM10.5619 6.59499L12.0664 5.23105L13.4268 6.74051L11.9231 8.10445L10.5619 6.59499Z" fill="#036CB5"/>
</g>
<defs>
<clipPath id="clip0_4_14">
<rect width="17" height="17" fill="white"/>
</clipPath>
</defs>
</svg>
