<svg width="79" height="18" viewBox="0 0 79 18" fill="none" xmlns="http://www.w3.org/2000/svg">
<path fill-rule="evenodd" clip-rule="evenodd" d="M5.60099 8.50613L9.85435 4.25305L5.60127 0C6.66059 0 7.7193 0 8.77862 0L13.0314 4.25305L8.77832 8.50613C7.71902 8.50613 6.66028 8.50613 5.60099 8.50613ZM0 8.50613L4.25305 4.25305L0.000302879 0C1.05932 0 2.11834 0 3.17735 0L7.43041 4.25305L3.17705 8.50613C2.11803 8.50613 1.05902 8.50613 0 8.50613Z" fill="#8C8C8C"/>
<path fill-rule="evenodd" clip-rule="evenodd" d="M39.4888 16.8619C40.307 16.8619 40.9468 16.4528 40.9468 15.6269C40.9468 14.9054 40.2998 14.6451 39.7268 14.4665C39.7047 14.4591 39.6749 14.4516 39.6525 14.4442C39.2211 14.3029 38.8416 14.1839 38.8416 13.9162C38.8416 13.6705 39.0425 13.5068 39.3923 13.5068C39.7193 13.5068 40.1212 13.6484 40.5005 13.8789L40.8576 13.2391C40.4408 12.9639 39.9054 12.7927 39.4143 12.7927C38.6335 12.7927 38.016 13.2465 38.016 13.9904C38.016 14.7566 38.6633 14.9946 39.2435 15.1657C39.2655 15.1732 39.2882 15.1806 39.3103 15.188C39.7417 15.3145 40.1212 15.4185 40.1212 15.7086C40.1212 15.9841 39.8979 16.1478 39.5112 16.1478C39.1093 16.1478 38.6484 15.9841 38.2241 15.6642L37.8225 16.2742C38.3136 16.6609 38.931 16.8619 39.4888 16.8619ZM43.662 16.8767C44.3835 16.8767 44.8966 16.5867 45.2687 16.1403L44.7404 15.6716C44.4283 15.9766 44.1158 16.1403 43.6769 16.1403C43.0967 16.1403 42.6429 15.7831 42.5463 15.1433H45.4324C45.4398 15.0989 45.4473 14.9501 45.4473 14.8905C45.4473 13.7599 44.8149 12.7778 43.5651 12.7778C42.442 12.7778 41.6462 13.7003 41.6462 14.8234C41.6462 16.0509 42.524 16.8767 43.662 16.8767ZM42.5386 14.5482C42.6206 13.9385 43.0073 13.5146 43.558 13.5146C44.1531 13.5146 44.495 13.968 44.5547 14.5482H42.5386ZM48.1697 16.8767C48.9359 16.8767 49.3897 16.5717 49.7764 16.1403L49.2335 15.6046C48.9508 15.8947 48.6384 16.0956 48.2144 16.0956C47.5227 16.0956 47.0391 15.5303 47.0391 14.8312C47.0391 14.1317 47.5152 13.5664 48.1697 13.5664C48.6238 13.5664 48.9139 13.7674 49.1891 14.0575L49.7469 13.4549C49.3822 13.0533 48.921 12.7778 48.1774 12.7778C47.0021 12.7778 46.139 13.7152 46.139 14.8312C46.139 15.9617 47.0021 16.8767 48.1697 16.8767ZM51.9561 16.8693C52.5662 16.8693 52.9305 16.5494 53.1836 16.1773V16.7873H54.0834V12.8598H53.1836V15.0766C53.1836 15.6866 52.819 16.0509 52.2984 16.0509C51.7626 16.0509 51.4576 15.7015 51.4576 15.0914V12.8598H50.5575V15.3592C50.5575 16.2742 51.0709 16.8693 51.9561 16.8693ZM55.2143 16.7873H56.1144V15.2924C56.1144 14.251 56.6648 13.7376 57.4534 13.7376H57.5053V12.7853C56.8136 12.7555 56.3598 13.1574 56.1144 13.745V12.8598H55.2143V16.7873ZM59.9527 16.8767C60.6743 16.8767 61.1874 16.5867 61.5594 16.1403L61.0311 15.6716C60.719 15.9766 60.4065 16.1403 59.9676 16.1403C59.3874 16.1403 58.9337 15.7831 58.8368 15.1433H61.7231C61.7306 15.0989 61.738 14.9501 61.738 14.8905C61.738 13.7599 61.1057 12.7778 59.8558 12.7778C58.7327 12.7778 57.9367 13.7003 57.9367 14.8234C57.9367 16.0509 58.8147 16.8767 59.9527 16.8767ZM58.8293 14.5482C58.9113 13.9385 59.298 13.5146 59.8484 13.5146C60.4435 13.5146 60.7858 13.968 60.8454 14.5482H58.8293ZM64.2672 16.8693C64.9067 16.8693 65.3158 16.5419 65.6059 16.1329V16.7873H66.506V11.3572H65.6059V13.4698C65.3235 13.1052 64.9142 12.7778 64.2672 12.7778C63.3298 12.7778 62.4446 13.5146 62.4446 14.8163C62.4446 16.1329 63.3447 16.8693 64.2672 16.8693ZM64.4828 16.0881C63.8728 16.0881 63.3522 15.5897 63.3522 14.8312C63.3522 14.0351 63.8653 13.559 64.4828 13.559C65.0853 13.559 65.6208 14.0575 65.6208 14.8163C65.6208 15.5825 65.0853 16.0881 64.4828 16.0881ZM72.0927 16.8693C73.0297 16.8693 73.9224 16.1329 73.9224 14.8312C73.9224 13.5146 73.0226 12.7778 72.0927 12.7778C71.4603 12.7778 71.0512 13.1052 70.7611 13.5146V11.3572H69.861V16.7873H70.7611V16.1773C71.0363 16.5419 71.4454 16.8693 72.0927 16.8693ZM71.8843 16.0881C71.2743 16.0881 70.7388 15.5897 70.7388 14.8312C70.7388 14.0649 71.2743 13.559 71.8843 13.559C72.4943 13.559 73.0077 14.0575 73.0077 14.8163C73.0077 15.6046 72.5017 16.0881 71.8843 16.0881ZM75.4623 17.9999C76.0947 17.9999 76.4441 17.7023 76.7566 16.8991L78.3188 12.8598H77.3815L76.3624 15.7757L75.2465 12.8598H74.287L75.9236 16.7873C75.7748 17.1296 75.6186 17.2411 75.3657 17.2411C75.1797 17.2411 75.0011 17.1815 74.8374 17.0923L74.5324 17.762C74.8076 17.9107 75.0828 17.9999 75.4623 17.9999Z" fill="#8C8C8C"/>
<path fill-rule="evenodd" clip-rule="evenodd" d="M25.7124 7.22953C26.0553 7.22953 26.3919 7.13561 26.6847 6.95701C27.2598 6.60699 27.5744 5.99787 27.5744 5.32972C27.5744 4.63744 27.2363 4.00654 26.6301 3.66101C26.3505 3.50179 26.0341 3.41772 25.7121 3.41772C25.3857 3.41772 25.0658 3.50417 24.7837 3.66906C24.188 4.01788 23.8624 4.64607 23.8624 5.32972C23.8624 5.9925 24.1677 6.60042 24.7363 6.95285C25.0294 7.1347 25.3675 7.22953 25.7124 7.22953ZM17.3327 4.59955L17.3324 1.54118H18.9752C19.3986 1.54118 19.7573 1.69532 20.0557 1.99376L20.0578 1.99555C20.3637 2.28624 20.5104 2.64344 20.5104 3.06411C20.5104 3.48806 20.3559 3.84675 20.0569 4.14579C19.7579 4.44483 19.3995 4.59928 18.9755 4.59928L18.6842 4.59955H17.3327ZM17.3327 6.12728H18.6842H18.9755C19.3879 6.12728 19.7886 6.04855 20.1672 5.88399C20.5304 5.72596 20.8586 5.50832 21.1392 5.22775C21.4194 4.94751 21.6374 4.61924 21.7951 4.25581C21.9597 3.87716 22.0384 3.47645 22.0384 3.06411C22.0384 2.65386 21.9603 2.25464 21.7951 1.87839C21.6365 1.51733 21.418 1.19176 21.1389 0.912684C20.8586 0.632142 20.5301 0.414473 20.1669 0.256471C19.7883 0.0918817 19.3876 0.0131836 18.9752 0.0131836L15.8044 0.0134865L15.8047 8.4865L17.3327 8.4862V6.12728ZM27.6713 7.7608C27.1382 8.32671 26.3824 8.62873 25.5998 8.62873C23.7548 8.62873 22.4134 7.14306 22.4134 5.33002C22.4132 3.51848 23.753 2.01852 25.5998 2.01852C26.3842 2.01852 27.1388 2.32917 27.671 2.89745V2.08947H29.1074L29.1077 8.55359H27.6713V7.7608ZM35.2367 7.65886C34.7785 8.21638 34.0626 8.47845 33.3375 8.47845C31.4515 8.47845 30.5132 7.17882 30.5132 5.37952L30.5129 2.09305H31.9625V5.30468C31.9625 6.37831 32.3972 7.07925 33.5248 7.07925C34.7412 7.07925 35.2493 6.20239 35.2493 5.06705V2.09305L36.6857 2.09275L36.686 7.65348C36.686 9.59085 35.4866 10.9274 33.5125 10.9274C32.4896 10.9274 31.5126 10.5992 30.7243 9.94234L30.6432 9.87467L31.4828 8.97606L31.5519 9.0178C32.1712 9.39198 32.7809 9.59085 33.5123 9.59085C34.5915 9.59085 35.237 9.01273 35.2367 7.91616V7.65886Z" fill="#8C8C8C"/>
<path fill-rule="evenodd" clip-rule="evenodd" d="M59.872 3.83776L59.8705 3.83685L59.917 3.74889C59.9221 3.73934 59.9272 3.7298 59.9322 3.72026C59.9331 3.71908 59.9337 3.71789 59.9343 3.7164L59.9797 3.63263L59.9811 3.63321L59.9958 3.60787L60.0059 3.59119L60.0238 3.56135L60.0268 3.55689C60.0399 3.53543 60.0533 3.51426 60.067 3.49338L60.0733 3.48324C60.0801 3.47281 60.0873 3.46208 60.0941 3.45164L60.1013 3.44121L60.1225 3.41019L60.1278 3.40244C60.1523 3.36756 60.177 3.33298 60.2026 3.29898L60.2044 3.29661C60.2134 3.28498 60.2223 3.27364 60.231 3.26203L60.2322 3.26082C60.8431 2.46894 61.7784 2.00473 62.7813 2.00473H62.9128L62.9125 2.00534C64.722 2.04171 66.0302 3.51277 66.0302 5.30344C66.0302 7.11468 64.6904 8.61494 62.8439 8.61494C62.1317 8.61494 61.4331 8.31204 60.9692 7.77566L60.9695 10.8269H59.533V5.1624H59.5363C59.5533 4.7602 59.6415 4.36456 59.8005 3.99397L59.8055 3.98175L59.8183 3.95282L59.8279 3.93107L59.8425 3.89886L59.8559 3.87084L59.872 3.83776ZM38.1335 0.000302879H39.6615L39.6618 8.47332H38.1338L38.1335 0.000302879ZM41.7495 4.24889L45.278 8.49747L43.2644 8.49778L39.8613 4.24919L43.2638 0.000302879L45.2777 0L41.7495 4.24889ZM46.5771 5.72918C46.6275 6.74259 47.4426 7.26612 48.4244 7.26612C49.1104 7.26612 49.7955 7.08187 50.3853 6.73035L50.4545 6.68891L51.2568 7.55355L51.1697 7.62034C50.3728 8.23064 49.4369 8.60303 48.4244 8.60303C46.4864 8.60303 45.0881 7.25004 45.0881 5.30432C45.0881 3.40335 46.4259 1.99282 48.3493 1.99282C49.6495 1.99282 50.6942 2.61624 51.2129 3.81479C51.4357 4.32938 51.4977 5.12454 51.3289 5.65912L51.3072 5.72888L46.5771 5.72918ZM53.7025 5.72888C53.7526 6.74229 54.568 7.26584 55.5498 7.26584C56.2355 7.26584 56.9207 7.08159 57.5101 6.73007L57.5796 6.68863L58.3819 7.55325L58.2948 7.62003C57.4979 8.23033 56.562 8.60272 55.5495 8.60272C53.6115 8.60272 52.2132 7.24974 52.2132 5.30402C52.2132 3.40305 53.551 1.99252 55.4744 1.99252C56.7746 1.99252 57.8193 2.61594 58.3381 3.81448C58.5608 4.3291 58.6231 5.12423 58.4543 5.65882L58.4323 5.72858L53.7025 5.72888ZM68.3722 5.728C68.4223 6.74168 69.2377 7.26524 70.2195 7.26524C70.9055 7.26524 71.5907 7.08098 72.1801 6.72947L72.2496 6.68802L73.0519 7.55264L72.9645 7.61943C72.1679 8.22973 71.2317 8.60212 70.2195 8.60212C68.2815 8.60212 66.8829 7.24913 66.8829 5.30344C66.8829 3.40244 68.2207 1.99191 70.144 1.99191C71.4443 1.99191 72.4893 2.61534 73.008 3.8139C73.2308 4.32819 73.2928 5.12365 73.124 5.65824L73.102 5.728H68.3722ZM60.9594 5.30344C60.9594 7.93427 64.5809 7.71276 64.5809 5.30344C64.5806 2.89441 60.9591 2.67319 60.9594 5.30344ZM46.6614 4.58102H49.9834C49.9586 4.47012 49.9181 4.35921 49.871 4.25931C49.5866 3.65618 49.0231 3.3297 48.3618 3.3297C47.6337 3.3297 46.9509 3.72175 46.7059 4.42867C46.6883 4.47875 46.6737 4.52973 46.6614 4.58102ZM53.7865 4.58072H57.1085C57.0838 4.46981 57.0432 4.35891 56.9964 4.25903C56.7117 3.65588 56.1482 3.3294 55.4869 3.3294C54.7588 3.3294 54.076 3.72148 53.831 4.42837C53.8134 4.47847 53.7988 4.52946 53.7865 4.58072ZM68.4566 4.58014H71.7782C71.7534 4.46921 71.7129 4.3583 71.6661 4.25843C71.3817 3.65527 70.8179 3.32882 70.1569 3.32882C69.4288 3.32882 68.7461 3.72057 68.5007 4.42749C68.4834 4.47756 68.4688 4.52855 68.4566 4.58014ZM75.7239 2.93258C76.3023 2.29156 77.1076 2.01041 77.9826 2.01041H78.3189V3.44896H77.6985C76.3136 3.44896 75.737 4.39319 75.737 5.68236V8.527H74.2489L74.2486 2.08075H75.7239V2.93258Z" fill="#BABABA"/>
</svg>
