<svg width="22" height="17" viewBox="0 0 22 17" fill="none" xmlns="http://www.w3.org/2000/svg">
<path fill-rule="evenodd" clip-rule="evenodd" d="M20.7766 11.6402C20.8622 11.5917 20.9348 11.5229 20.9881 11.4398C21.0415 11.3567 21.0739 11.2617 21.0827 11.1632H21.1101V2.72302C21.1101 2.52686 20.9712 2.44674 20.804 2.52686L11.3202 7.01261C11.2284 7.05416 11.129 7.07564 11.0283 7.07564C10.9277 7.07564 10.8282 7.05416 10.7364 7.01261L1.19598 2.49923C1.16375 2.47935 1.12663 2.46899 1.08885 2.46931C1.05106 2.46964 1.01413 2.48065 0.982239 2.50108C0.950352 2.52152 0.924794 2.55056 0.908471 2.58491C0.892148 2.61926 0.885715 2.65754 0.889904 2.69539V11.1613C0.894997 11.2609 0.925951 11.3574 0.979667 11.4411C1.03338 11.5248 1.10798 11.5928 1.19598 11.6383L10.7081 15.927C10.7999 15.9686 10.8994 15.9901 11 15.9901C11.1006 15.9901 11.2001 15.9686 11.2919 15.927L20.7766 11.6402ZM2.36455 1.51754V2.07838L10.7355 6.03093C10.8273 6.07247 10.9268 6.09395 11.0274 6.09395C11.128 6.09395 11.2275 6.07247 11.3193 6.03093L19.3595 2.21836V1.51754C19.3869 1.32139 19.2481 1.24127 19.0854 1.32139L11.2919 5.10173C11.2001 5.14327 11.1006 5.16475 11 5.16475C10.8994 5.16475 10.7999 5.14327 10.7081 5.10173L2.66971 1.326C2.63784 1.3067 2.6013 1.29665 2.56413 1.29696C2.52695 1.29726 2.49058 1.3079 2.45902 1.32771C2.42746 1.34752 2.40194 1.37573 2.38527 1.40922C2.3686 1.44272 2.36143 1.4802 2.36455 1.51754V1.51754ZM20.1919 1.82605L21.6939 1.09761C21.7268 1.08422 21.7624 1.07894 21.7977 1.0822C21.833 1.08546 21.8671 1.09717 21.897 1.11635C21.9269 1.13553 21.9519 1.16163 21.9698 1.19249C21.9877 1.22335 21.9981 1.25807 22 1.29376V11.7498C21.9949 11.8493 21.964 11.9458 21.9102 12.0295C21.8565 12.1133 21.7819 12.1813 21.6939 12.2268L11.2919 16.9363C11.2001 16.9779 11.1006 16.9995 11 16.9995C10.8994 16.9995 10.7999 16.9779 10.7081 16.9363L0.306076 12.2268C0.220471 12.1783 0.147869 12.1095 0.0945413 12.0264C0.041214 11.9433 0.00876573 11.8484 0 11.7498L0 1.29376C0 1.12524 0.138876 1.04143 0.306076 1.09761L1.55779 1.71462V0.22827C1.55779 0.0321166 1.69667 -0.0480026 1.86386 0.0321166C10.8725 4.29317 11.1256 4.29317 11.2919 4.20936L19.8867 0.0321166C20.0539 -0.024059 20.1928 0.0597439 20.1928 0.22827L20.1919 1.82605Z" fill="#8C8C8C"/>
</svg>
