<svg width="37" height="17" viewBox="0 0 37 17" fill="none" xmlns="http://www.w3.org/2000/svg">
<g clip-path="url(#clip0_2_81)">
<path d="M26.2862 5.51587V11.0659C26.2867 11.0862 26.2832 11.1064 26.2758 11.1253C26.2684 11.1442 26.2573 11.1613 26.2431 11.1757C26.229 11.1901 26.2122 11.2014 26.1936 11.2089C26.175 11.2164 26.1552 11.2201 26.1352 11.2195H25.0231C25.0031 11.2201 24.9833 11.2164 24.9647 11.2089C24.9461 11.2014 24.9293 11.1901 24.9152 11.1757C24.901 11.1613 24.8899 11.1442 24.8825 11.1253C24.8751 11.1064 24.8716 11.0862 24.8721 11.0659V5.51587C24.8716 5.49555 24.8751 5.47533 24.8825 5.45645C24.8899 5.43757 24.901 5.42043 24.9152 5.40605C24.9293 5.39168 24.9461 5.38038 24.9647 5.37284C24.9833 5.3653 25.0031 5.36168 25.0231 5.3622H26.1352C26.1552 5.36168 26.175 5.3653 26.1936 5.37284C26.2122 5.38038 26.229 5.39168 26.2431 5.40605C26.2573 5.42043 26.2684 5.43757 26.2758 5.45645C26.2832 5.47533 26.2867 5.49555 26.2862 5.51587ZM34.9697 5.3622C35.0257 5.36652 35.0788 5.38953 35.1207 5.42765C35.1348 5.44609 35.1441 5.4678 35.1478 5.49082C35.1516 5.51384 35.1496 5.53744 35.1421 5.5595L33.3057 11.1199C33.2939 11.148 33.2743 11.1719 33.2493 11.1888C33.2242 11.2056 33.1949 11.2147 33.1649 11.2148H32.1721C32.1417 11.2167 32.1115 11.2085 32.0861 11.1914C32.0607 11.1743 32.0415 11.1492 32.0314 11.1199L30.9622 7.87872L29.892 11.1199C29.8802 11.148 29.8605 11.1719 29.8355 11.1888C29.8105 11.2056 29.7812 11.2147 29.7512 11.2148H28.7594C28.7289 11.2169 28.6986 11.2088 28.6732 11.1916C28.6477 11.1745 28.6286 11.1493 28.6186 11.1199L26.7822 5.5595C26.7751 5.53739 26.7733 5.51386 26.7771 5.49092C26.7808 5.46797 26.7899 5.44628 26.8036 5.42765C26.8161 5.40723 26.8335 5.39045 26.8543 5.37898C26.875 5.3675 26.8984 5.36172 26.922 5.3622H28.1637C28.1956 5.36278 28.2266 5.37379 28.2519 5.39359C28.2772 5.4134 28.2957 5.44097 28.3044 5.47224L29.287 8.75803L30.3674 5.47224C30.3792 5.44418 30.3988 5.42025 30.4239 5.4034C30.4489 5.38655 30.4782 5.3775 30.5082 5.37738H31.3835C31.4139 5.37542 31.4441 5.38363 31.4695 5.40075C31.495 5.41788 31.5142 5.44298 31.5243 5.47224L32.6047 8.75803L33.5872 5.47224C33.596 5.44097 33.6144 5.4134 33.6398 5.39359C33.6651 5.37379 33.696 5.36278 33.728 5.3622H34.9697ZM36.849 5.3622C36.8882 5.36487 36.9251 5.38192 36.9529 5.41018C36.9806 5.43844 36.9974 5.47599 37 5.51587V11.0659C37.0005 11.0862 36.997 11.1064 36.9896 11.1253C36.9822 11.1442 36.9711 11.1613 36.9569 11.1757C36.9428 11.1901 36.9259 11.2014 36.9074 11.2089C36.8888 11.2164 36.869 11.2201 36.849 11.2195H35.736C35.716 11.2201 35.6961 11.2164 35.6776 11.2089C35.659 11.2014 35.6422 11.1901 35.628 11.1757C35.6139 11.1613 35.6028 11.1442 35.5954 11.1253C35.588 11.1064 35.5844 11.0862 35.5849 11.0659V5.51587C35.5844 5.49555 35.588 5.47533 35.5954 5.45645C35.6028 5.43757 35.6139 5.42043 35.628 5.40605C35.6422 5.39168 35.659 5.38038 35.6776 5.37284C35.6961 5.3653 35.716 5.36168 35.736 5.3622H36.849ZM24.2242 11.0213C24.2398 11.0375 24.2501 11.0582 24.2538 11.0806C24.2576 11.103 24.2545 11.126 24.2451 11.1465C24.2357 11.1671 24.2204 11.1843 24.2012 11.1958C24.1819 11.2073 24.1597 11.2126 24.1375 11.211H22.7765C22.7497 11.2118 22.723 11.2064 22.6986 11.195C22.6742 11.1837 22.6527 11.1667 22.6357 11.1455L22.4092 10.861C21.9226 11.1801 21.3567 11.3515 20.7778 11.3552C20.1109 11.3532 19.4635 11.1254 18.9378 10.7078C18.412 10.2902 18.0378 9.70644 17.8741 9.04854C17.7103 8.39063 17.7664 7.69599 18.0334 7.07408C18.3004 6.45217 18.7632 5.93834 19.3489 5.61357C19.9345 5.2888 20.6097 5.17156 21.2681 5.28031C21.9264 5.38906 22.5305 5.71763 22.9851 6.21423C23.4397 6.71084 23.719 7.34725 23.7789 8.02318C23.8389 8.6991 23.6761 9.37611 23.3162 9.94752L24.2233 11.0241L24.2242 11.0213ZM12.8513 10.7064C13.131 10.8164 13.2401 11.2442 13.2615 11.4311C13.3044 11.7716 13.2074 11.9053 13.0993 11.9053C12.9912 11.9053 12.8402 11.7735 12.678 11.5098C12.601 11.4104 12.5481 11.2939 12.5237 11.1698C12.4992 11.0457 12.5038 10.9175 12.5372 10.7955C12.5688 10.7433 12.6187 10.7051 12.6768 10.6888C12.7349 10.6724 12.7969 10.679 12.8504 10.7073L12.8513 10.7064ZM11.2097 11.948C11.411 11.9564 11.6026 12.0382 11.7495 12.1785C12.0841 12.4631 12.1811 12.7941 12.0086 13.0322C11.9536 13.0962 11.8854 13.147 11.8089 13.1811C11.7323 13.2152 11.6494 13.2318 11.5658 13.2295C11.3798 13.2306 11.1997 13.1632 11.0587 13.0398C10.9164 12.9345 10.8176 12.779 10.7816 12.6037C10.7456 12.4284 10.7749 12.2458 10.8639 12.0913C10.9057 12.0399 10.9588 11.9992 11.0188 11.9725C11.0789 11.9458 11.1443 11.9339 11.2097 11.9376V11.948ZM7.42593 15.1209C5.7891 15.1182 4.19914 14.5646 2.90378 13.5464C1.60842 12.5282 0.680417 11.1026 0.264368 9.49175C-0.151681 7.88091 -0.0324108 6.17527 0.603595 4.64059C1.2396 3.10591 2.35662 1.8284 3.78061 1.0071C5.2046 0.185796 6.85558 -0.133163 8.4763 0.0999168C10.097 0.332997 11.5965 1.10503 12.741 2.29571C13.8855 3.4864 14.6109 5.02887 14.804 6.68278C14.9971 8.3367 14.6472 10.0092 13.8087 11.4396C13.8028 11.447 13.7949 11.4525 13.7861 11.4555C13.7772 11.4585 13.7677 11.4589 13.7586 11.4566C13.7495 11.4543 13.7412 11.4495 13.7348 11.4426C13.7283 11.4357 13.7239 11.4271 13.722 11.4178C13.6562 10.6187 13.3235 9.86672 12.7792 9.28685C12.235 8.70699 11.512 8.33424 10.7306 8.23063C10.5898 8.20882 10.5684 8.1206 10.752 8.09878C11.2737 8.05327 11.7987 8.0644 12.3181 8.13198C12.34 7.93865 12.3509 7.74419 12.3507 7.54957C12.3506 6.56074 12.0622 5.59417 11.5222 4.77207C10.9822 3.94998 10.2147 3.30929 9.31684 2.93101C8.41897 2.55272 7.43103 2.45385 6.47794 2.64687C5.52485 2.8399 4.64942 3.31616 3.96232 4.01544C3.27523 4.71472 2.80735 5.6056 2.61783 6.57545C2.42831 7.5453 2.52567 8.55055 2.8976 9.46409C3.26953 10.3776 3.89932 11.1584 4.70735 11.7078C5.51537 12.2571 6.46533 12.5504 7.43712 12.5504H7.66364C7.58806 12.1041 7.55683 11.6513 7.57042 11.1987C7.58161 10.8913 7.64593 10.8467 7.77551 11.0886C8.13094 11.7812 8.63471 12.3836 9.2496 12.8515C9.86449 13.3194 10.5748 13.6408 11.3281 13.792C12.2761 13.9325 13.1872 14.2634 14.0085 14.7652C14.8297 15.2671 15.5448 15.93 16.1122 16.7155C16.2632 16.9052 16.0367 17.0996 15.8642 16.946C14.6178 15.6842 12.9457 14.9532 11.1883 14.9018C9.60355 14.9132 8.52033 15.1219 7.42966 15.1219L7.42593 15.1209ZM21.5189 9.79006L20.9251 9.05398C20.911 9.03667 20.902 9.01568 20.899 8.9934C20.896 8.97112 20.8992 8.94842 20.9082 8.92789C20.9172 8.90736 20.9317 8.88981 20.95 8.87722C20.9683 8.86464 20.9897 8.85752 21.0118 8.85668H22.2647C22.3651 8.53352 22.3624 8.18631 22.2569 7.86482C22.1515 7.54333 21.9487 7.26407 21.6777 7.06705C21.4066 6.87003 21.0813 6.76537 20.7482 6.76806C20.4151 6.77076 20.0915 6.88068 19.8236 7.08207C19.5556 7.28345 19.3573 7.56597 19.2569 7.88912C19.1564 8.21228 19.1591 8.55949 19.2646 8.88098C19.37 9.20248 19.5728 9.48176 19.8438 9.67881C20.1148 9.87585 20.4401 9.98054 20.7732 9.97787C21.0338 9.98202 21.2909 9.91661 21.5189 9.78816V9.79006Z" fill="#8C8C8C"/>
</g>
<defs>
<clipPath id="clip0_2_81">
<rect width="37" height="17" fill="white"/>
</clipPath>
</defs>
</svg>
