<svg width="29" height="17" viewBox="0 0 29 17" fill="none" xmlns="http://www.w3.org/2000/svg">
<g clip-path="url(#clip0_2_84)">
<path d="M29 7.21411V11.3701H27.5301V8.45488H26.1143V11.3701H24.6443V7.21411H29V7.21411Z" fill="#8C8C8C"/>
<path fill-rule="evenodd" clip-rule="evenodd" d="M21.625 11.5186C21.911 11.5482 22.2 11.5177 22.4738 11.429C22.7475 11.3403 23.0001 11.1953 23.2156 11.0032C23.4311 10.811 23.6048 10.5759 23.7259 10.3126C23.8469 10.0493 23.9126 9.76358 23.9188 9.47339C23.9408 9.21124 23.9064 8.94739 23.8178 8.69998C23.7292 8.45256 23.5885 8.22746 23.4056 8.04013C23.2226 7.85281 23.0016 7.70771 22.7578 7.61482C22.514 7.52192 22.2531 7.48344 21.9932 7.50201C21.7424 7.49634 21.4929 7.54101 21.2593 7.63343C21.0257 7.72585 20.8127 7.86418 20.6324 8.0404C20.6691 7.70986 20.8235 7.40403 21.0668 7.17982C21.3102 6.9556 21.6259 6.82826 21.9553 6.82149H23.2348L23.8737 5.58801C23.8737 5.58801 22.4561 5.62081 21.7983 5.62081C20.2922 5.64723 19.2717 7.0292 19.2717 8.70816C19.2726 10.6577 20.2643 11.5186 21.625 11.5186ZM21.6331 8.59064C21.7469 8.58512 21.8606 8.6044 21.9663 8.64718C22.072 8.68997 22.1674 8.75524 22.2459 8.83857C22.3244 8.9219 22.3843 9.02133 22.4213 9.13008C22.4583 9.23884 22.4718 9.35438 22.4606 9.46884C22.4704 9.58515 22.4563 9.70225 22.4191 9.81278C22.3819 9.9233 22.3224 10.0248 22.2444 10.111C22.1664 10.1972 22.0716 10.2661 21.9659 10.3135C21.8602 10.3608 21.7459 10.3856 21.6303 10.3861C21.5147 10.3867 21.4002 10.3631 21.2941 10.3168C21.1879 10.2705 21.0924 10.2025 21.0136 10.1171C20.9348 10.0317 20.8743 9.9307 20.8361 9.82055C20.7978 9.7104 20.7825 9.59343 20.7912 9.47703C20.7803 9.361 20.7943 9.24396 20.8322 9.13388C20.8702 9.02379 20.9312 8.92326 21.0111 8.83914C21.091 8.75501 21.1879 8.68926 21.2953 8.64638C21.4026 8.6035 21.5179 8.58448 21.6331 8.59064V8.59064Z" fill="#8C8C8C"/>
<path d="M18.076 9.98082C17.807 10.12 17.5124 10.2019 17.2107 10.2213C17.0675 10.2361 16.9228 10.2201 16.7861 10.1746C16.6494 10.129 16.5237 10.0548 16.4174 9.95691C16.311 9.85898 16.2263 9.73949 16.1688 9.60626C16.1113 9.47302 16.0823 9.32903 16.0836 9.1837C16.0797 9.03897 16.1065 8.89507 16.1622 8.76166C16.218 8.62825 16.3013 8.50843 16.4067 8.41023C16.5121 8.31203 16.6371 8.23774 16.7733 8.19234C16.9094 8.14693 17.0537 8.13147 17.1962 8.14699C17.5164 8.17747 17.8278 8.27028 18.113 8.42029C18.113 8.42029 18.4947 7.71245 18.6932 7.35899C18.3338 7.11707 17.919 6.97196 17.4883 6.93746C17.0576 6.90296 16.6254 6.9802 16.2326 7.16186C15.8398 7.34351 15.4995 7.62354 15.2442 7.97534C14.9888 8.32714 14.8267 8.73903 14.7734 9.17186C14.7773 9.48956 14.8476 9.80285 14.9797 10.0912C15.1119 10.3796 15.3029 10.6365 15.5402 10.8451C15.7776 11.0538 16.0559 11.2095 16.357 11.302C16.6581 11.3945 16.9751 11.4217 17.2874 11.3819C17.7563 11.3604 18.2135 11.2274 18.622 10.9938L18.076 9.98082Z" fill="#8C8C8C"/>
<path d="M0 3.70044L2.03933 7.37993V9.62461L0 13.2977V3.70044Z" fill="#606060"/>
<path d="M7.83246 6.0408L9.74365 4.85651H13.6545L7.83246 8.45492V6.0408Z" fill="#4E4E4E"/>
<path d="M7.81893 3.67858L7.83337 8.55056L5.78592 7.28246V0L7.81893 3.67858Z" fill="#BABABA"/>
<path d="M13.6509 4.85467H9.74006L7.81894 3.67038L5.78592 0L13.6509 4.85467Z" fill="#8D8D8D"/>
<path d="M7.83336 13.316V10.9538L5.78952 9.71027V16.9982L7.83336 13.316Z" fill="#8C8C8C"/>
<path d="M9.73555 12.1462L2.03933 7.37993L0 3.70044L13.6428 12.1417L9.73555 12.1462V12.1462Z" fill="#6C6C6C"/>
<path d="M5.78683 16.9991L7.82616 13.3169L9.73194 12.1454L13.6392 12.1408L5.78683 16.9991Z" fill="#515151"/>
<path d="M0.00271606 13.2968L5.80308 9.71023L3.85308 8.50226L2.03934 9.6246L0.00271606 13.2968Z" fill="#696969"/>
</g>
<defs>
<clipPath id="clip0_2_84">
<rect width="29" height="17" fill="white"/>
</clipPath>
</defs>
</svg>
