<svg width="156" height="33" viewBox="0 0 156 33" fill="none" xmlns="http://www.w3.org/2000/svg">
<path d="M40.692 10.4H43.032V21.02H49.62V23H40.692V10.4ZM60.1995 18.248C60.1995 18.404 60.1875 18.626 60.1635 18.914H52.6215C52.7535 19.622 53.0955 20.186 53.6475 20.606C54.2115 21.014 54.9075 21.218 55.7355 21.218C56.7915 21.218 57.6615 20.87 58.3455 20.174L59.5515 21.56C59.1195 22.076 58.5735 22.466 57.9135 22.73C57.2535 22.994 56.5095 23.126 55.6815 23.126C54.6255 23.126 53.6955 22.916 52.8915 22.496C52.0875 22.076 51.4635 21.494 51.0195 20.75C50.5875 19.994 50.3715 19.142 50.3715 18.194C50.3715 17.258 50.5815 16.418 51.0015 15.674C51.4335 14.918 52.0275 14.33 52.7835 13.91C53.5395 13.49 54.3915 13.28 55.3395 13.28C56.2755 13.28 57.1095 13.49 57.8415 13.91C58.5855 14.318 59.1615 14.9 59.5695 15.656C59.9895 16.4 60.1995 17.264 60.1995 18.248ZM55.3395 15.08C54.6195 15.08 54.0075 15.296 53.5035 15.728C53.0115 16.148 52.7115 16.712 52.6035 17.42H58.0575C57.9615 16.724 57.6675 16.16 57.1755 15.728C56.6835 15.296 56.0715 15.08 55.3395 15.08ZM71.9008 13.388V21.542C71.9008 24.926 70.1728 26.618 66.7168 26.618C65.7928 26.618 64.9168 26.498 64.0888 26.258C63.2608 26.03 62.5768 25.694 62.0368 25.25L63.0448 23.558C63.4648 23.906 63.9928 24.182 64.6288 24.386C65.2768 24.602 65.9308 24.71 66.5908 24.71C67.6468 24.71 68.4208 24.47 68.9128 23.99C69.4048 23.51 69.6508 22.778 69.6508 21.794V21.29C69.2668 21.71 68.7988 22.028 68.2468 22.244C67.6948 22.46 67.0888 22.568 66.4288 22.568C65.5168 22.568 64.6888 22.376 63.9448 21.992C63.2128 21.596 62.6308 21.044 62.1988 20.336C61.7788 19.628 61.5688 18.818 61.5688 17.906C61.5688 16.994 61.7788 16.19 62.1988 15.494C62.6308 14.786 63.2128 14.24 63.9448 13.856C64.6888 13.472 65.5168 13.28 66.4288 13.28C67.1248 13.28 67.7548 13.394 68.3188 13.622C68.8948 13.85 69.3748 14.198 69.7588 14.666V13.388H71.9008ZM66.7708 20.66C67.6228 20.66 68.3188 20.408 68.8588 19.904C69.4108 19.388 69.6868 18.722 69.6868 17.906C69.6868 17.102 69.4108 16.448 68.8588 15.944C68.3188 15.44 67.6228 15.188 66.7708 15.188C65.9068 15.188 65.1988 15.44 64.6468 15.944C64.1068 16.448 63.8368 17.102 63.8368 17.906C63.8368 18.722 64.1068 19.388 64.6468 19.904C65.1988 20.408 65.9068 20.66 66.7708 20.66ZM83.8948 18.248C83.8948 18.404 83.8828 18.626 83.8588 18.914H76.3168C76.4488 19.622 76.7908 20.186 77.3428 20.606C77.9068 21.014 78.6028 21.218 79.4308 21.218C80.4868 21.218 81.3568 20.87 82.0408 20.174L83.2468 21.56C82.8148 22.076 82.2688 22.466 81.6088 22.73C80.9488 22.994 80.2048 23.126 79.3768 23.126C78.3208 23.126 77.3908 22.916 76.5868 22.496C75.7828 22.076 75.1588 21.494 74.7148 20.75C74.2828 19.994 74.0668 19.142 74.0668 18.194C74.0668 17.258 74.2768 16.418 74.6968 15.674C75.1288 14.918 75.7228 14.33 76.4788 13.91C77.2348 13.49 78.0868 13.28 79.0348 13.28C79.9708 13.28 80.8048 13.49 81.5368 13.91C82.2808 14.318 82.8568 14.9 83.2648 15.656C83.6848 16.4 83.8948 17.264 83.8948 18.248ZM79.0348 15.08C78.3148 15.08 77.7028 15.296 77.1988 15.728C76.7068 16.148 76.4068 16.712 76.2988 17.42H81.7528C81.6568 16.724 81.3628 16.16 80.8708 15.728C80.3788 15.296 79.7668 15.08 79.0348 15.08ZM91.5101 13.28C92.7221 13.28 93.6941 13.634 94.4261 14.342C95.1581 15.05 95.5241 16.1 95.5241 17.492V23H93.2741V17.78C93.2741 16.94 93.0761 16.31 92.6801 15.89C92.2841 15.458 91.7201 15.242 90.9881 15.242C90.1601 15.242 89.5061 15.494 89.0261 15.998C88.5461 16.49 88.3061 17.204 88.3061 18.14V23H86.0561V13.388H88.1981V14.63C88.5701 14.186 89.0381 13.85 89.6021 13.622C90.1661 13.394 90.8021 13.28 91.5101 13.28ZM107.88 9.644V23H105.72V21.758C105.348 22.214 104.886 22.556 104.334 22.784C103.794 23.012 103.194 23.126 102.534 23.126C101.61 23.126 100.776 22.922 100.032 22.514C99.3002 22.106 98.7242 21.53 98.3042 20.786C97.8842 20.03 97.6742 19.166 97.6742 18.194C97.6742 17.222 97.8842 16.364 98.3042 15.62C98.7242 14.876 99.3002 14.3 100.032 13.892C100.776 13.484 101.61 13.28 102.534 13.28C103.17 13.28 103.752 13.388 104.28 13.604C104.808 13.82 105.258 14.144 105.63 14.576V9.644H107.88ZM102.804 21.2C103.344 21.2 103.83 21.08 104.262 20.84C104.694 20.588 105.036 20.234 105.288 19.778C105.54 19.322 105.666 18.794 105.666 18.194C105.666 17.594 105.54 17.066 105.288 16.61C105.036 16.154 104.694 15.806 104.262 15.566C103.83 15.314 103.344 15.188 102.804 15.188C102.264 15.188 101.778 15.314 101.346 15.566C100.914 15.806 100.572 16.154 100.32 16.61C100.068 17.066 99.9422 17.594 99.9422 18.194C99.9422 18.794 100.068 19.322 100.32 19.778C100.572 20.234 100.914 20.588 101.346 20.84C101.778 21.08 102.264 21.2 102.804 21.2ZM125.818 13.388L122.272 23H120.112L117.628 16.376L115.108 23H112.948L109.42 13.388H111.544L114.082 20.48L116.728 13.388H118.618L121.21 20.516L123.82 13.388H125.818ZM130.738 13.28C132.154 13.28 133.234 13.622 133.978 14.306C134.734 14.978 135.112 15.998 135.112 17.366V23H132.988V21.83C132.712 22.25 132.316 22.574 131.8 22.802C131.296 23.018 130.684 23.126 129.964 23.126C129.244 23.126 128.614 23.006 128.074 22.766C127.534 22.514 127.114 22.172 126.814 21.74C126.526 21.296 126.382 20.798 126.382 20.246C126.382 19.382 126.7 18.692 127.336 18.176C127.984 17.648 128.998 17.384 130.378 17.384H132.862V17.24C132.862 16.568 132.658 16.052 132.25 15.692C131.854 15.332 131.26 15.152 130.468 15.152C129.928 15.152 129.394 15.236 128.866 15.404C128.35 15.572 127.912 15.806 127.552 16.106L126.67 14.468C127.174 14.084 127.78 13.79 128.488 13.586C129.196 13.382 129.946 13.28 130.738 13.28ZM130.432 21.488C130.996 21.488 131.494 21.362 131.926 21.11C132.37 20.846 132.682 20.474 132.862 19.994V18.878H130.54C129.244 18.878 128.596 19.304 128.596 20.156C128.596 20.564 128.758 20.888 129.082 21.128C129.406 21.368 129.856 21.488 130.432 21.488ZM140.141 14.792C140.789 13.784 141.929 13.28 143.561 13.28V15.422C143.369 15.386 143.195 15.368 143.039 15.368C142.163 15.368 141.479 15.626 140.987 16.142C140.495 16.646 140.249 17.378 140.249 18.338V23H137.999V13.388H140.141V14.792ZM154.418 18.248C154.418 18.404 154.406 18.626 154.382 18.914H146.84C146.972 19.622 147.314 20.186 147.866 20.606C148.43 21.014 149.126 21.218 149.954 21.218C151.01 21.218 151.88 20.87 152.564 20.174L153.77 21.56C153.338 22.076 152.792 22.466 152.132 22.73C151.472 22.994 150.728 23.126 149.9 23.126C148.844 23.126 147.914 22.916 147.11 22.496C146.306 22.076 145.682 21.494 145.238 20.75C144.806 19.994 144.59 19.142 144.59 18.194C144.59 17.258 144.8 16.418 145.22 15.674C145.652 14.918 146.246 14.33 147.002 13.91C147.758 13.49 148.61 13.28 149.558 13.28C150.494 13.28 151.328 13.49 152.06 13.91C152.804 14.318 153.38 14.9 153.788 15.656C154.208 16.4 154.418 17.264 154.418 18.248ZM149.558 15.08C148.838 15.08 148.226 15.296 147.722 15.728C147.23 16.148 146.93 16.712 146.822 17.42H152.276C152.18 16.724 151.886 16.16 151.394 15.728C150.902 15.296 150.29 15.08 149.558 15.08Z" fill="#DDDDDD"/>
<g clip-path="url(#clip0_72_14)">
<path d="M0.0495802 24.3786L0 7.40599L4.4855 4.82264L4.43474 22.0945L19.3959 30.4366L15.1548 33L0.0495802 24.3786ZM8.66672 19.6225L8.63277 2.56962L13.0537 0L13.1985 17.1206L17.1772 19.4648L17.0798 0.103125L21.5146 2.58895L21.5622 21.8475L23.8044 23.1703L25.6959 21.9463L25.595 4.86718L30.0268 7.35365L30.1319 23.9818L23.4157 28.0597L8.66672 19.6225Z" fill="#DDDDDD"/>
</g>
<defs>
<clipPath id="clip0_72_14">
<rect width="30.0882" height="33" fill="white"/>
</clipPath>
</defs>
</svg>
