<svg xmlns="http://www.w3.org/2000/svg" width="2308.367" height="3733.455" viewBox="0 0 2308.367 3733.455">
  <g id="Уголовники" transform="translate(0)">
    <path id="Многоугольник_17" data-name="Многоугольник 17" d="M227.209,0,454.418,394.581H0Z" transform="matrix(0.574, 0.819, -0.819, 0.574, 530.955, 1349.288)" fill="#171717"/>
    <path id="Многоугольник_19" data-name="Многоугольник 19" d="M135.494,0,270.989,235.623H0Z" transform="translate(2046.231 1351.335) rotate(133)" fill="#171717"/>
    <path id="Многоугольник_40" data-name="Многоугольник 40" d="M69.908,0l69.908,122.433H0Z" transform="translate(1724.156 943.811) rotate(173)" fill="#171717"/>
    <path id="Многоугольник_20" data-name="Многоугольник 20" d="M201.474,0,402.947,350.36H0Z" transform="matrix(-0.921, -0.391, 0.391, -0.921, 2030.026, 2151.806)" fill="#171717"/>
    <path id="Многоугольник_26" data-name="Многоугольник 26" d="M114.788,0,229.576,199.615H0Z" transform="matrix(0.966, 0.259, -0.259, 0.966, 1871.036, 2608.689)" fill="#171717"/>
    <path id="Многоугольник_35" data-name="Многоугольник 35" d="M132.243,0,264.485,230.293H0Z" transform="translate(483.319 3093.122) rotate(121)" fill="#171717"/>
    <path id="Многоугольник_34" data-name="Многоугольник 34" d="M148.879,0,297.758,259.011H0Z" transform="matrix(0.998, 0.07, -0.07, 0.998, 1816.598, 3368.036)" fill="#171717"/>
    <path id="Многоугольник_36" data-name="Многоугольник 36" d="M83.821,0l83.821,145.82H0Z" transform="matrix(0.848, 0.53, -0.53, 0.848, 428.402, 3482.223)" fill="#171717"/>
    <path id="Многоугольник_42" data-name="Многоугольник 42" d="M84.821,0l84.821,147.82H0Z" transform="translate(1494.34 3706.917) rotate(171)" fill="#171717"/>
    <path id="Многоугольник_43" data-name="Многоугольник 43" d="M54.821,0l54.821,95.82H0Z" transform="matrix(-0.259, 0.966, -0.966, -0.259, 854.588, 3624.443)" fill="#171717"/>
    <path id="Многоугольник_33" data-name="Многоугольник 33" d="M168.894,0,337.787,293.46H0Z" transform="matrix(-0.809, -0.588, 0.588, -0.809, 1299.208, 3271.106)" fill="#171717"/>
    <path id="Многоугольник_28" data-name="Многоугольник 28" d="M178.259,0,356.518,309.632H0Z" transform="translate(1434.801 2174.656) rotate(101)" fill="#171717"/>
    <path id="Многоугольник_29" data-name="Многоугольник 29" d="M157.631,0,315.262,272.607H0Z" transform="translate(433.055 2838.082) rotate(-154)" fill="#171717"/>
    <path id="Многоугольник_30" data-name="Многоугольник 30" d="M41.418,0,82.836,71.72H0Z" transform="matrix(0.208, 0.978, -0.978, 0.208, 1583.133, 2037.023)" fill="#171717"/>
    <path id="Многоугольник_37" data-name="Многоугольник 37" d="M41.418,0,82.836,71.72H0Z" transform="matrix(0.208, 0.978, -0.978, 0.208, 1539.445, 1053.157)" fill="#171717"/>
    <path id="Многоугольник_21" data-name="Многоугольник 21" d="M201.474,0,402.947,350.36H0Z" transform="translate(2100.834 325.109) rotate(59)" fill="#171717"/>
    <path id="Многоугольник_38" data-name="Многоугольник 38" d="M201.474,0,402.947,350.36H0Z" transform="matrix(-0.819, 0.574, -0.574, -0.819, 1436.918, 675.209)" fill="#171717"/>
    <path id="Многоугольник_39" data-name="Многоугольник 39" d="M201.474,0,402.947,350.36H0Z" transform="translate(349.88 787.416) rotate(87)" fill="#171717"/>
    <path id="Многоугольник_10" data-name="Многоугольник 10" d="M76.584,0l76.584,132.967H0Z" transform="translate(2057.43 302.103) rotate(-137)" fill="#171717"/>
    <path id="Многоугольник_14" data-name="Многоугольник 14" d="M68.292,0l68.292,117.951H0Z" transform="translate(1647.01 137.425) rotate(150)" fill="#171717"/>
    <path id="Многоугольник_12" data-name="Многоугольник 12" d="M116.972,0,233.945,203.091H0Z" transform="translate(329.851 739.82) rotate(-85)" fill="#171717"/>
    <path id="Многоугольник_16" data-name="Многоугольник 16" d="M52.7,0l52.7,91.5H0Z" transform="matrix(0.891, 0.454, -0.454, 0.891, 255.245, 361.571)" fill="#171717"/>
  </g>
</svg>
